<svg viewBox="-250 -250 500 500" width="500" height="500" xmlns="http://www.w3.org/2000/svg"><path d="M-95.38635119200009,-9.620918588291726L-52.87844630104048,-30.302425080649503L-61.787507896831755,-26.715469869888018zM-95.38635119200009,-9.620918588291726L-61.787507896831755,-26.715469869888018L-70.5781176514929,-22.8156561557707zM-95.38635119200009,-9.620918588291726L-43.93723335885858,-33.54157680907885L-52.87844630104048,-30.302425080649503zM-95.38635119200009,-9.620918588291726L-70.5781176514929,-22.8156561557707L-79.16463737362302,-18.640115022497014zM-95.38635119200009,-9.620918588291726L-35.050680914755375,-36.40036569500967L-43.93723335885858,-33.54157680907885zM-95.38635119200009,-9.620918588291726L-79.16463737362302,-18.640115022497014L-87.46213402460357,-14.22802173956145zM-95.38635119200009,-9.620918588291726L-26.306177869857567,-38.84837396094579L-35.050680914755375,-36.40036569500967zM-95.38635119200009,-9.620918588291726L-18.308322717118298,-40.735808218560756L-26.306177869857567,-38.84837396094579zM-95.38635119200009,-9.620918588291726L-102.85406471701148,-4.862892253808176L-109.78325708442412,0zM-95.38635119200009,-9.620918588291726L-20.15214426122292,-34.27426720929212L-18.308322717118298,-40.735808218560756zM-20.15214426122292,-34.27426720929212L-17.791474835587273,-40.85769208011399L-18.308322717118298,-40.735808218560756zM-20.15214426122292,-34.27426720929212L-9.594599897255918,-42.403201621894056L-17.791474835587273,-40.85769208011399zM-95.38635119200009,-9.620918588291726L-109.78325708442412,0L-116.0936408879676,4.9191619738415575zM-20.15214426122292,-34.27426720929212L-9.573673239985899,-42.40596861061791L-9.594599897255918,-42.403201621894056zM-95.38635119200009,-9.620918588291726L-116.0936408879676,4.9191619738415575L-121.70714247624832,9.843693000339355zM-95.38635119200009,-9.620918588291726L-121.70714247624832,9.843693000339355L-126.54880542573699,14.720697481494579zM-95.38635119200009,-9.620918588291726L-126.54880542573699,14.720697481494579L-130.54739969538662,19.494902623413395zM-95.38635119200009,-9.620918588291726L-130.54739969538662,19.494902623413395L-133.637074022363,24.10959221695417zM-155.77601615378893,-82.36408508476161L-89.43974308571407,-116.54337327775512L-98.64127408478399,-112.82469628103345zM-155.77601615378893,-82.36408508476161L-98.64127408478399,-112.82469628103345L-107.757660950367,-108.86866546831494zM-155.77601615378893,-82.36408508476161L-80.24104762299231,-119.98914240306719L-89.43974308571407,-116.54337327775512zM-155.77601615378893,-82.36408508476161L-107.757660950367,-108.86866546831494L-116.70077949392244,-104.7127257635463zM-155.77601615378893,-82.36408508476161L-71.13383507944478,-123.12758385462004L-80.24104762299231,-119.98914240306719zM-95.38635119200009,-9.620918588291726L-133.637074022363,24.10959221695417L-135.75820686895187,28.50691187463816zM-155.77601615378893,-82.36408508476161L-116.70077949392244,-104.7127257635463L-125.38318180353295,-100.39605217035275zM-155.77601615378893,-82.36408508476161L-62.20694256958604,-125.92653539754068L-71.13383507944478,-123.12758385462004zM-155.77601615378893,-82.36408508476161L-125.38318180353295,-100.39605217035275L-133.7179512411581,-95.95940904662572zM-155.77601615378893,-82.36408508476161L-54.075284461206394,-128.20793859801836L-62.20694256958604,-125.92653539754068zM-155.77601615378893,-82.36408508476161L-133.7179512411581,-95.95940904662572L-141.61858353286115,-91.44530298328027zM-95.38635119200009,-9.620918588291726L-135.75820686895187,28.50691187463816L-136.8592636020712,32.628155790743605zM-95.38635119200009,-9.620918588291726L-126.01704403934671,47.10470343904761L-20.15214426122292,-34.27426720929212zM-155.77601615378893,-82.36408508476161L-141.61858353286115,-91.44530298328027L-148.99939253945783,-86.8981792811483zM-95.38635119200009,-9.620918588291726L-136.8592636020712,32.628155790743605L-136.8982195524858,36.41466879362972z" style="fill:rgb(82,237,172)"/><path d="M66.68814991334985,48.56914433572691L70.73959602920806,58.984693984209144L70.73457992095533,58.95759923492109z" style="fill:rgb(246,170,142)"/><path d="M-95.38635119200009,-9.620918588291726L-136.8982195524858,36.41466879362972L-135.84450785692042,39.80896403243554z" style="fill:rgb(82,237,172)"/><path d="M66.68814991334985,48.56914433572691L67.11124931393823,49.66997887462357L70.73959602920806,58.984693984209144zM70.1006038947176,55.4821341296996L69.99711295846669,54.914588486534804L35.774237719438695,-33.02021640875685z" style="fill:rgb(246,169,142)"/><path d="M-155.77601615378893,-82.36408508476161L-161.86591092096398,-77.89081068167383L-167.18879044555018,-73.52764073985841z" style="fill:rgb(82,237,172)"/><path d="M70.73457992095533,58.95759923492109L70.1006038947176,55.4821341296996L35.83890316873721,-32.541800186747814z" style="fill:rgb(246,169,142)"/><path d="M-95.38635119200009,-9.620918588291726L-135.84450785692042,39.80896403243554L-133.68091566945924,42.75546685878493zM-0.9284876531608075,-127.00334698481328L-53.54971725451901,-128.35538747301237L-54.075284461206394,-128.20793859801836zM-155.77601615378893,-82.36408508476161L-167.18879044555018,-73.52764073985841L-171.66825262135686,-69.32522875987891z" style="fill:rgb(82,237,172)"/><path d="M70.73457992095533,58.95759923492109L36.01856259585945,-31.21347375715895L66.68814991334985,48.56914433572691z" style="fill:rgb(246,169,142)"/><path d="M36.2382953505499,-29.58849348485109L70.22545744672962,59.190591019884955L70.73959602920806,58.984693984209144z" style="fill:rgb(142,85,246)"/><path d="M-0.9284876531608075,-127.00334698481328L-45.251445987331834,-130.3853935973115L-53.54971725451901,-128.35538747301237z" style="fill:rgb(82,237,172)"/><path d="M26.12916680094579,-25.088586742093355L61.00805884621041,63.40761094269166L70.22545744672962,59.190591019884955z" style="fill:rgb(155,90,246)"/><path d="M16.876400978231228,-20.50073651370482L52.14025655836591,68.00627091689265L61.00805884621041,63.40761094269166z" style="fill:rgb(168,96,244)"/><path d="M-134.7677903441299,41.27535694320461L-95.51760740978301,125.82639394335638L-93.06466238036991,129.4477800471372z" style="fill:rgb(15,71,152)"/><path d="M67.11124931393823,49.66997887462357L66.68814991334985,48.56914433572691L36.235224266949956,-29.61125468043437z" style="fill:rgb(246,169,142)"/><path d="M-95.38635119200009,-9.620918588291726L-133.68091566945924,42.75546685878493L-130.40512100632188,45.202005513324316z" style="fill:rgb(82,237,172)"/><path d="M70.1006038947176,55.4821341296996L35.774237719438695,-33.02021640875685L35.83890316873721,-32.541800186747814z" style="fill:rgb(246,169,142)"/><path d="M-0.9284876531608075,-127.00334698481328L-37.401217824438355,-131.99017433713095L-45.251445987331834,-130.3853935973115z" style="fill:rgb(82,237,172)"/><path d="M8.037519122865412,-15.652516506455001L43.70908573063657,72.94456251980668L52.14025655836591,68.00627091689265z" style="fill:rgb(180,103,240)"/><path d="M-155.77601615378893,-82.36408508476161L-171.66825262135686,-69.32522875987891L-175.2321761971198,-65.33516165865437z" style="fill:rgb(82,237,172)"/><path d="M70.73457992095533,58.95759923492109L35.83890316873721,-32.541800186747814L36.01856259585945,-31.21347375715895z" style="fill:rgb(246,169,142)"/><path d="M-0.9284876531608075,-127.00334698481328L-30.088027330393853,-133.1456922847472L-37.401217824438355,-131.99017433713095z" style="fill:rgb(82,237,172)"/><path d="M-0.2988173148386836,-10.588030394911467L35.80013983197376,78.17762364360502L43.70908573063657,72.94456251980668z" style="fill:rgb(192,109,235)"/><path d="M-95.38635119200009,-9.620918588291726L-130.40512100632188,45.202005513324316L-126.03160729130389,47.10127954459697z" style="fill:rgb(82,237,172)"/><path d="M-135.84450785692042,39.80896403243554L-95.51760740978301,125.82639394335638L-134.7677903441299,41.27535694320461z" style="fill:rgb(15,71,152)"/><path d="M-132.05048347273842,43.973217181569886L-93.06466238036991,129.4477800471372L-89.54421264790626,132.5751283920818z" style="fill:rgb(20,68,165)"/><path d="M66.68814991334985,48.56914433572691L36.01856259585945,-31.21347375715895L36.235224266949956,-29.61125468043437z" style="fill:rgb(246,169,142)"/><path d="M-155.77601615378893,-82.36408508476161L-175.2321761971198,-65.33516165865437L-177.8145687443158,-61.60963924688309z" style="fill:rgb(82,237,172)"/><path d="M36.2382953505499,-29.58849348485109L35.7061489506544,-29.37446865844304L70.22545744672962,59.190591019884955z" style="fill:rgb(142,85,246)"/><path d="M30.91990508038093,-27.23250935517381L70.22545744672962,59.190591019884955L35.7061489506544,-29.37446865844304zM26.12916680094579,-25.088586742093355L70.22545744672962,59.190591019884955L30.91990508038093,-27.23250935517381z" style="fill:rgb(155,90,246)"/><path d="M-0.9284876531608075,-127.00334698481328L-23.399611962727533,-133.83103883930872L-30.088027330393853,-133.1456922847472zM-95.38635119200009,-9.620918588291726L-126.03160729130389,47.10127954459697L-126.01704403934671,47.10470343904761z" style="fill:rgb(82,237,172)"/><path d="M67.11124931393823,49.66997887462357L36.235224266949956,-29.61125468043437L36.2382953505499,-29.58849348485109z" style="fill:rgb(246,169,142)"/><path d="M21.507344441841234,-22.796923551624406L61.00805884621041,63.40761094269166L26.12916680094579,-25.088586742093355z" style="fill:rgb(168,96,244)"/><path d="M-8.045695853318447,-5.3541625675141145L28.497178084067748,83.65744365009338L35.80013983197376,78.17762364360502z" style="fill:rgb(203,116,229)"/><path d="M16.876400978231228,-20.50073651370482L61.00805884621041,63.40761094269166L21.507344441841234,-22.796923551624406z" style="fill:rgb(168,96,244)"/><path d="M12.463660510138606,-18.080272745679835L52.14025655836591,68.00627091689265L16.876400978231228,-20.50073651370482zM8.037519122865412,-15.652516506455001L52.14025655836591,68.00627091689265L12.463660510138606,-18.080272745679835z" style="fill:rgb(180,103,240)"/><path d="M-134.7677903441299,41.27535694320461L-93.06466238036991,129.4477800471372L-133.68091566945924,42.75546685878493z" style="fill:rgb(15,71,152)"/><path d="M-0.9284876531608075,-127.00334698481328L-17.421968557087045,-134.02825387082063L-23.399611962727533,-133.83103883930872zM-155.77601615378893,-82.36408508476161L-177.8145687443158,-61.60963924688309L-179.35711958783503,-58.200653185924615z" style="fill:rgb(82,237,172)"/><path d="M3.877773979843211,-13.12535852362506L43.70908573063657,72.94456251980668L8.037519122865412,-15.652516506455001z" style="fill:rgb(192,109,235)"/><path d="M-15.117425967498262,0L21.882009988669985,89.332901135015L28.497178084067748,83.65744365009338z" style="fill:rgb(213,123,221)"/><path d="M-0.2988173148386836,-10.588030394911467L43.70908573063657,72.94456251980668L3.877773979843211,-13.12535852362506z" style="fill:rgb(192,109,235)"/><path d="M-128.2280436030924,46.1475221252857L-89.54421264790626,132.5751283920818L-84.97621946898724,135.15222847495187z" style="fill:rgb(27,66,177)"/><path d="M-133.68091566945924,42.75546685878493L-93.06466238036991,129.4477800471372L-132.05048347273842,43.973217181569886z" style="fill:rgb(20,68,165)"/><path d="M35.83890316873721,-32.541800186747814L35.774237719438695,-33.02021640875685L17.742194331043013,-79.35301236322746z" style="fill:rgb(246,169,142)"/><path d="M-4.162600559223265,-7.977619838053544L35.80013983197376,78.17762364360502L-0.2988173148386836,-10.588030394911467z" style="fill:rgb(203,116,229)"/><path d="M36.01856259585945,-31.21347375715895L35.83890316873721,-32.541800186747814L17.785236888912497,-78.92454630839187z" style="fill:rgb(246,169,142)"/><path d="M-0.9284876531608075,-127.00334698481328L-12.238528593458904,-133.72353917856165L-17.421968557087045,-134.02825387082063z" style="fill:rgb(82,237,172)"/><path d="M-8.045695853318447,-5.3541625675141145L35.80013983197376,78.17762364360502L-4.162600559223265,-7.977619838053544z" style="fill:rgb(203,116,229)"/><path d="M-155.77601615378893,-82.36408508476161L-179.35711958783503,-58.200653185924615L-179.8106552754405,-55.159481184610726z" style="fill:rgb(82,237,172)"/><path d="M-21.430557894697092,5.422455623077593L16.033840143523634,95.14949182779057L21.882009988669985,89.332901135015z" style="fill:rgb(221,131,213)"/><path d="M36.235224266949956,-29.61125468043437L36.01856259585945,-31.21347375715895L17.82339152497525,-78.54583217044626z" style="fill:rgb(246,169,142)"/><path d="M-132.05048347273842,43.973217181569886L-89.54421264790626,132.5751283920818L-130.40512100632188,45.202005513324316z" style="fill:rgb(20,68,165)"/><path d="M35.83890316873721,-32.541800186747814L17.742194331043013,-79.35301236322746L17.785236888912497,-78.92454630839187z" style="fill:rgb(246,169,142)"/><path d="M-11.571172364273389,-2.6849870829396267L28.497178084067748,83.65744365009338L-8.045695853318447,-5.3541625675141145z" style="fill:rgb(213,123,221)"/><path d="M-123.32365816359713,47.75367474965381L-84.97621946898724,135.15222847495187L-79.39804465555656,137.12879866905803z" style="fill:rgb(35,64,189)"/><path d="M-0.9284876531608075,-127.00334698481328L-7.928798150008785,-132.90738143748936L-12.238528593458904,-133.72353917856165z" style="fill:rgb(82,237,172)"/><path d="M36.01856259585945,-31.21347375715895L17.785236888912497,-78.92454630839187L17.82339152497525,-78.54583217044626zM36.2382953505499,-29.58849348485109L36.235224266949956,-29.61125468043437L18.049150707980523,-76.29957535735001z" style="fill:rgb(246,169,142)"/><path d="M36.2382953505499,-29.58849348485109L17.5096690862573,-76.06091330650138L35.7061489506544,-29.37446865844304z" style="fill:rgb(142,85,246)"/><path d="M-130.40512100632188,45.202005513324316L-89.54421264790626,132.5751283920818L-128.2280436030924,46.1475221252857z" style="fill:rgb(27,66,177)"/><path d="M-15.117425967498262,0L28.497178084067748,83.65744365009338L-11.571172364273389,-2.6849870829396267z" style="fill:rgb(213,123,221)"/><path d="M10.185734708466258,-72.82171344820358L30.91990508038093,-27.23250935517381L35.7061489506544,-29.37446865844304zM7.742251513471411,-71.74097262066128L26.12916680094579,-25.088586742093355L30.91990508038093,-27.23250935517381z" style="fill:rgb(155,90,246)"/><path d="M0.6525348108004291,-68.30961637176385L21.507344441841234,-22.796923551624406L26.12916680094579,-25.088586742093355z" style="fill:rgb(168,96,244)"/><path d="M-155.77601615378893,-82.36408508476161L-179.8106552754405,-55.159481184610726L-179.13775187101166,-52.53557291295057z" style="fill:rgb(82,237,172)"/><path d="M-1.7153812109170115,-67.1634936212054L16.876400978231228,-20.50073651370482L21.507344441841234,-22.796923551624406z" style="fill:rgb(168,96,244)"/><path d="M-26.904364025123957,10.858473858380174L11.028774580241846,101.04942933581457L16.033840143523634,95.14949182779057z" style="fill:rgb(229,138,203)"/><path d="M36.235224266949956,-29.61125468043437L17.82339152497525,-78.54583217044626L18.049150707980523,-76.29957535735001z" style="fill:rgb(246,169,142)"/><path d="M-8.502868198102059,-63.57130108868052L12.463660510138606,-18.080272745679835L16.876400978231228,-20.50073651370482z" style="fill:rgb(180,103,240)"/><path d="M-18.263308939698682,2.7020526794483715L21.882009988669985,89.332901135015L-15.117425967498262,0z" style="fill:rgb(221,131,213)"/><path d="M-155.77601615378893,-82.36408508476161L-81.92981902218243,-68.23105464633004L-54.075284461206394,-128.20793859801836z" style="fill:rgb(82,237,172)"/><path d="M-10.772196547297938,-62.37015673872609L8.037519122865412,-15.652516506455001L12.463660510138606,-18.080272745679835z" style="fill:rgb(180,103,240)"/><path d="M-0.9284876531608075,-127.00334698481328L-4.566974988761518,-131.5756143928423L-7.928798150008785,-132.90738143748936z" style="fill:rgb(82,237,172)"/><path d="M-128.2280436030924,46.1475221252857L-84.97621946898724,135.15222847495187L-126.03160729130389,47.10127954459697z" style="fill:rgb(27,66,177)"/><path d="M36.2382953505499,-29.58849348485109L18.049150707980523,-76.29957535735001L18.051189005412905,-76.27908908305706z" style="fill:rgb(246,169,142)"/><path d="M36.2382953505499,-29.58849348485109L18.051189005412905,-76.27908908305706L17.5096690862573,-76.06091330650138z" style="fill:rgb(142,85,246)"/><path d="M10.185734708466258,-72.82171344820358L35.7061489506544,-29.37446865844304L17.5096690862573,-76.06091330650138z" style="fill:rgb(155,90,246)"/><path d="M-21.430557894697092,5.422455623077593L21.882009988669985,89.332901135015L-18.263308939698682,2.7020526794483715z" style="fill:rgb(221,131,213)"/><path d="M7.742251513471411,-71.74097262066128L30.91990508038093,-27.23250935517381L10.185734708466258,-72.82171344820358z" style="fill:rgb(155,90,246)"/><path d="M9.100496070800421,-101.23716454637459L17.82339152497525,-78.54583217044626L17.785236888912497,-78.92454630839187z" style="fill:rgb(246,169,142)"/><path d="M-117.37937275139943,48.754100036934645L-79.39804465555656,137.12879866905803L-72.8653373911696,138.46167661794294z" style="fill:rgb(44,63,200)"/><path d="M0.6525348108004291,-68.30961637176385L26.12916680094579,-25.088586742093355L7.742251513471411,-71.74097262066128z" style="fill:rgb(168,96,244)"/><path d="M-17.190101835767262,-58.64987341032752L3.877773979843211,-13.12535852362506L8.037519122865412,-15.652516506455001z" style="fill:rgb(192,109,235)"/><path d="M-0.9284876531608075,-127.00334698481328L-54.075284461206394,-128.20793859801836L-73.12045295944506,-87.19952344807272z" style="fill:rgb(82,237,172)"/><path d="M-1.7153812109170115,-67.1634936212054L21.507344441841234,-22.796923551624406L0.6525348108004291,-68.30961637176385z" style="fill:rgb(168,96,244)"/><path d="M-155.77601615378893,-82.36408508476161L-179.13775187101166,-52.53557291295057L-177.3137768409732,-50.375317442143185z" style="fill:rgb(82,237,172)"/><path d="M-126.03160729130389,47.10127954459697L-84.97621946898724,135.15222847495187L-123.32365816359713,47.75367474965381z" style="fill:rgb(35,64,189)"/><path d="M-19.338097958083612,-57.40465738756838L-0.2988173148386836,-10.588030394911467L3.877773979843211,-13.12535852362506z" style="fill:rgb(192,109,235)"/><path d="M-0.9483768021733182,-127.37774915544317L17.785236888912497,-78.92454630839187L17.742194331043013,-79.35301236322746z" style="fill:rgb(246,169,142)"/><path d="M-8.502868198102059,-63.57130108868052L16.876400978231228,-20.50073651370482L-1.7153812109170115,-67.1634936212054z" style="fill:rgb(180,103,240)"/><path d="M-31.46133593706453,16.25085581341901L6.9387684224946495,106.97138556759002L11.028774580241846,101.04942933581457z" style="fill:rgb(235,145,192)"/><path d="M-24.15711424747583,8.130188493803805L16.033840143523634,95.14949182779057L-21.430557894697092,5.422455623077593z" style="fill:rgb(229,138,203)"/><path d="M-10.772196547297938,-62.37015673872609L12.463660510138606,-18.080272745679835L-8.502868198102059,-63.57130108868052z" style="fill:rgb(180,103,240)"/><path d="M-0.9284876531608075,-127.00334698481328L-2.220698136669344,-129.72980482285428L-4.566974988761518,-131.5756143928423z" style="fill:rgb(82,237,172)"/><path d="M-25.320120800555266,-53.59066250372449L-4.162600559223265,-7.977619838053544L-0.2988173148386836,-10.588030394911467z" style="fill:rgb(203,116,229)"/><path d="M-0.9483768021733182,-127.37774915544317L9.100496070800421,-101.23716454637459L17.785236888912497,-78.92454630839187z" style="fill:rgb(246,169,142)"/><path d="M-17.190101835767262,-58.64987341032752L8.037519122865412,-15.652516506455001L-10.772196547297938,-62.37015673872609z" style="fill:rgb(192,109,235)"/><path d="M-0.9284876531608075,-127.00334698481328L18.049150707980523,-76.29957535735001L17.82339152497525,-78.54583217044626zM-0.9284876531608075,-127.00334698481328L17.82339152497525,-78.54583217044626L9.100496070800421,-101.23716454637459z" style="fill:rgb(246,169,142)"/><path d="M-26.904364025123957,10.858473858380174L16.033840143523634,95.14949182779057L-24.15711424747583,8.130188493803805z" style="fill:rgb(229,138,203)"/><path d="M-27.324204635187478,-52.312928569425694L-8.045695853318447,-5.3541625675141145L-4.162600559223265,-7.977619838053544z" style="fill:rgb(203,116,229)"/><path d="M-123.32365816359713,47.75367474965381L-79.39804465555656,137.12879866905803L-120.5928831599963,48.41154423380979z" style="fill:rgb(35,64,189)"/><path d="M-110.45663209752124,49.119393910623565L-72.8653373911696,138.46167661794294L-65.45218021809767,139.1168555998676z" style="fill:rgb(54,63,210)"/><path d="M-19.338097958083612,-57.40465738756838L3.877773979843211,-13.12535852362506L-17.190101835767262,-58.64987341032752z" style="fill:rgb(192,109,235)"/><path d="M-155.77601615378893,-82.36408508476161L-177.3137768409732,-50.375317442143185L-174.32964163246587,-48.721681868107794z" style="fill:rgb(82,237,172)"/><path d="M3.3445672452792725,-114.03468222063367L17.5096690862573,-76.06091330650138L18.051189005412905,-76.27908908305706z" style="fill:rgb(142,85,246)"/><path d="M-120.5928831599963,48.41154423380979L-79.39804465555656,137.12879866905803L-117.37937275139943,48.754100036934645z" style="fill:rgb(44,63,200)"/><path d="M-25.320120800555266,-53.59066250372449L-0.2988173148386836,-10.588030394911467L-19.338097958083612,-57.40465738756838z" style="fill:rgb(203,116,229)"/><path d="M-32.80502526270384,-48.441416034731105L-11.571172364273389,-2.6849870829396267L-8.045695853318447,-5.3541625675141145z" style="fill:rgb(213,123,221)"/><path d="M-0.8061317691668461,-124.69065831389781L18.051189005412905,-76.27908908305706L18.049150707980523,-76.29957535735001z" style="fill:rgb(246,169,142)"/><path d="M-0.9284876531608075,-127.00334698481328L-0.9483768021733182,-127.37774915544317L-2.220698136669344,-129.72980482285428z" style="fill:rgb(82,237,172)"/><path d="M-155.603338173602,-3.6077881919596226L-179.13775187101166,-52.53557291295057L-157.10026207074006,-5.529589729014459z" style="fill:rgb(15,71,152)"/><path d="M17.5096690862573,-76.06091330650138L-11.323099856710648,-120.1144556400546L10.185734708466258,-72.82171344820358z" style="fill:rgb(155,90,246)"/><path d="M-29.17342189488859,13.543508776133585L11.028774580241846,101.04942933581457L-26.904364025123957,10.858473858380174z" style="fill:rgb(235,145,192)"/><path d="M9.100496070800421,-101.23716454637459L-0.9483768021733182,-127.37774915544317L-0.9284876531608075,-127.00334698481328z" style="fill:rgb(246,169,142)"/><path d="M10.185734708466258,-72.82171344820358L-11.323099856710648,-120.1144556400546L7.742251513471411,-71.74097262066128z" style="fill:rgb(155,90,246)"/><path d="M-35.02906406586022,21.539441943346105L3.830843606398963,112.85101833514318L6.9387684224946495,106.97138556759002z" style="fill:rgb(240,151,180)"/><path d="M-27.324204635187478,-52.312928569425694L-4.162600559223265,-7.977619838053544L-25.320120800555266,-53.59066250372449z" style="fill:rgb(203,116,229)"/><path d="M-34.642948383807195,-47.143124257610054L-15.117425967498262,0L-11.571172364273389,-2.6849870829396267z" style="fill:rgb(213,123,221)"/><path d="M7.742251513471411,-71.74097262066128L-20.994557736176912,-115.55134388399682L0.6525348108004291,-68.30961637176385zM0.6525348108004291,-68.30961637176385L-20.994557736176912,-115.55134388399682L-1.7153812109170115,-67.1634936212054z" style="fill:rgb(168,96,244)"/><path d="M-102.63666900341434,48.82979514907563L-65.45218021809767,139.1168555998676L-57.25144952041646,139.07032363294368z" style="fill:rgb(65,64,219)"/><path d="M-155.77601615378893,-82.36408508476161L-174.32964163246587,-48.721681868107794L-170.19339355369155,-47.61181114887894z" style="fill:rgb(82,237,172)"/><path d="M-31.46133593706453,16.25085581341901L11.028774580241846,101.04942933581457L-29.17342189488859,13.543508776133585z" style="fill:rgb(235,145,192)"/><path d="M-0.9284876531608075,-127.00334698481328L-0.8070597497772717,-124.70848439575674L18.049150707980523,-76.29957535735001z" style="fill:rgb(246,169,142)"/><path d="M-117.37937275139943,48.754100036934645L-72.8653373911696,138.46167661794294L-114.14068099117941,49.09933782207796z" style="fill:rgb(44,63,200)"/><path d="M-32.80502526270384,-48.441416034731105L-8.045695853318447,-5.3541625675141145L-27.324204635187478,-52.312928569425694z" style="fill:rgb(213,123,221)"/><path d="M3.3445672452792725,-114.03468222063367L-1.357581588716423,-124.46805303308031L17.5096690862573,-76.06091330650138z" style="fill:rgb(142,85,246)"/><path d="M-1.7153812109170115,-67.1634936212054L-30.279537839969805,-110.82032892072249L-8.502868198102059,-63.57130108868052z" style="fill:rgb(180,103,240)"/><path d="M-39.55876956138167,-43.251912799003414L-18.263308939698682,2.7020526794483715L-15.117425967498262,0z" style="fill:rgb(221,131,213)"/><path d="M-8.502868198102059,-63.57130108868052L-30.279537839969805,-110.82032892072249L-10.772196547297938,-62.37015673872609z" style="fill:rgb(180,103,240)"/><path d="M-0.8061317691668461,-124.69065831389781L18.049150707980523,-76.29957535735001L-0.8070597497772717,-124.70848439575674z" style="fill:rgb(246,169,142)"/><path d="M17.5096690862573,-76.06091330650138L-1.357581588716423,-124.46805303308031L-11.323099856710648,-120.1144556400546z" style="fill:rgb(155,90,246)"/><path d="M-114.14068099117941,49.09933782207796L-72.8653373911696,138.46167661794294L-110.45663209752124,49.119393910623565z" style="fill:rgb(54,63,210)"/><path d="M-155.09966654152197,-2.9611587619251964L-177.3137768409732,-50.375317442143185L-155.603338173602,-3.6077881919596226z" style="fill:rgb(15,71,152)"/><path d="M-34.642948383807195,-47.143124257610054L-11.571172364273389,-2.6849870829396267L-32.80502526270384,-48.441416034731105z" style="fill:rgb(213,123,221)"/><path d="M7.742251513471411,-71.74097262066128L-11.323099856710648,-120.1144556400546L-20.994557736176912,-115.55134388399682z" style="fill:rgb(168,96,244)"/><path d="M-10.772196547297938,-62.37015673872609L-39.08635521045443,-105.9646230674906L-17.190101835767262,-58.64987341032752z" style="fill:rgb(192,109,235)"/><path d="M-41.2086388947754,-41.94586744369027L-21.430557894697092,5.422455623077593L-18.263308939698682,2.7020526794483715z" style="fill:rgb(221,131,213)"/><path d="M-33.2372598285985,18.883379169158744L6.9387684224946495,106.97138556759002L-31.46133593706453,16.25085581341901z" style="fill:rgb(240,151,180)"/><path d="M-94.01963330483285,47.87639443176499L-57.25144952041646,139.07032363294368L-48.373049923784414,138.30991314774994z" style="fill:rgb(77,66,227)"/><path d="M-155.77601615378893,-82.36408508476161L-170.19339355369155,-47.61181114887894L-164.93184005583342,-47.07651627574972z" style="fill:rgb(82,237,172)"/><path d="M-155.603338173602,-3.6077881919596226L-177.3137768409732,-50.375317442143185L-179.13775187101166,-52.53557291295057z" style="fill:rgb(15,71,152)"/><path d="M-152.75292496254173,-1.4157065541753393L-177.3137768409732,-50.375317442143185L-155.09966654152197,-2.9611587619251964z" style="fill:rgb(20,68,165)"/><path d="M-17.190101835767262,-58.64987341032752L-39.08635521045443,-105.9646230674906L-19.338097958083612,-57.40465738756838z" style="fill:rgb(192,109,235)"/><path d="M-1.7153812109170115,-67.1634936212054L-20.994557736176912,-115.55134388399682L-30.279537839969805,-110.82032892072249z" style="fill:rgb(180,103,240)"/><path d="M-37.54063890496704,26.66206200815178L1.7657289310522257,118.6209293316273L3.830843606398963,112.85101833514318z" style="fill:rgb(244,158,168)"/><path d="M-0.8070597497772717,-124.70848439575674L-0.9284876531608075,-127.00334698481328L-21.43486980306714,-115.6969580691848z" style="fill:rgb(82,237,172)"/><path d="M-39.55876956138167,-43.251912799003414L-15.117425967498262,0L-34.642948383807195,-47.143124257610054z" style="fill:rgb(221,131,213)"/><path d="M-126.01704403934671,47.10470343904761L-123.32365816359713,47.75367474965381L-143.69464334763546,1.3255983605006718z" style="fill:rgb(35,64,189)"/><path d="M-0.8061317691668461,-124.69065831389781L-1.357581588716423,-124.46805303308031L3.3445672452792725,-114.03468222063367z" style="fill:rgb(142,85,246)"/><path d="M-110.45663209752124,49.119393910623565L-65.45218021809767,139.1168555998676L-106.74633223218017,49.139593555077624z" style="fill:rgb(54,63,210)"/><path d="M0.8048855801815774,124.49790059003675L0.7957938122827266,124.21099833290671L-3.366190564270082,114.77194002675274z" style="fill:rgb(246,169,142)"/><path d="M-35.02906406586022,21.539441943346105L6.9387684224946495,106.97138556759002L-33.2372598285985,18.883379169158744z" style="fill:rgb(240,151,180)"/><path d="M-0.8061317691668461,-124.69065831389781L-0.8070597497772717,-124.70848439575674L-1.357581588716423,-124.46805303308031z" style="fill:rgb(82,237,172)"/><path d="M-45.497338570502585,-38.07452884841596L-24.15711424747583,8.130188493803805L-21.430557894697092,5.422455623077593z" style="fill:rgb(229,138,203)"/><path d="M-19.338097958083612,-57.40465738756838L-47.32432539387756,-101.02928268917252L-25.320120800555266,-53.59066250372449z" style="fill:rgb(203,116,229)"/><path d="M-106.74633223218017,49.139593555077624L-65.45218021809767,139.1168555998676L-102.63666900341434,48.82979514907563z" style="fill:rgb(65,64,219)"/><path d="M-143.69464334763546,1.3255983605006718L-123.32365816359713,47.75367474965381L-120.5928831599963,48.41154423380979z" style="fill:rgb(35,64,189)"/><path d="M-10.772196547297938,-62.37015673872609L-30.279537839969805,-110.82032892072249L-39.08635521045443,-105.9646230674906z" style="fill:rgb(192,109,235)"/><path d="M-84.72429940215955,46.26194810301809L-48.373049923784414,138.30991314774994L-38.94320443509685,136.83592928669412z" style="fill:rgb(89,68,234)"/><path d="M-11.323099856710648,-120.1144556400546L-16.344592443384574,-117.92074426611498L-20.994557736176912,-115.55134388399682z" style="fill:rgb(82,237,172)"/><path d="M-41.2086388947754,-41.94586744369027L-18.263308939698682,2.7020526794483715L-39.55876956138167,-43.251912799003414z" style="fill:rgb(221,131,213)"/><path d="M-25.320120800555266,-53.59066250372449L-47.32432539387756,-101.02928268917252L-27.324204635187478,-52.312928569425694z" style="fill:rgb(203,116,229)"/><path d="M-155.77601615378893,-82.36408508476161L-164.93184005583342,-47.07651627574972L-158.59179580848772,-47.13860133420533zM-16.344592443384574,-117.92074426611498L-21.43486980306714,-115.6969580691848L-30.279537839969805,-110.82032892072249z" style="fill:rgb(82,237,172)"/><path d="M-126.01704403934671,47.10470343904761L-143.69464334763546,1.3255983605006718L-147.68826397752866,0.6263954704800986z" style="fill:rgb(35,64,189)"/><path d="M-151.9633066221523,-0.8957525125068553L-174.32964163246587,-48.721681868107794L-152.75292496254173,-1.4157065541753393z" style="fill:rgb(20,68,165)"/><path d="M-46.937918194509095,-36.77406312335527L-26.904364025123957,10.858473858380174L-24.15711424747583,8.130188493803805z" style="fill:rgb(229,138,203)"/><path d="M-142.34728591696668,1.5614720392802686L-120.5928831599963,48.41154423380979L-117.37937275139943,48.754100036934645z" style="fill:rgb(44,63,200)"/><path d="M-102.63666900341434,48.82979514907563L-57.25144952041646,139.07032363294368L-98.50072185042313,48.5180277046477z" style="fill:rgb(65,64,219)"/><path d="M-36.27892782413219,24.08867340342136L3.830843606398963,112.85101833514318L-35.02906406586022,21.539441943346105z" style="fill:rgb(244,158,168)"/><path d="M-74.88553109003352,44.00178376522644L-38.94320443509685,136.83592928669412L-29.101595521714955,134.66212621731438z" style="fill:rgb(102,71,239)"/><path d="M-45.497338570502585,-38.07452884841596L-21.430557894697092,5.422455623077593L-41.2086388947754,-41.94586744369027z" style="fill:rgb(229,138,203)"/><path d="M-19.338097958083612,-57.40465738756838L-39.08635521045443,-105.9646230674906L-47.32432539387756,-101.02928268917252z" style="fill:rgb(203,116,229)"/><path d="M-27.324204635187478,-52.312928569425694L-54.90381926061761,-96.06157684013439L-32.80502526270384,-48.441416034731105z" style="fill:rgb(213,123,221)"/><path d="M-148.77497237742315,0.2413486600015694L-174.32964163246587,-48.721681868107794L-151.9633066221523,-0.8957525125068553z" style="fill:rgb(27,66,177)"/><path d="M-152.75292496254173,-1.4157065541753393L-174.32964163246587,-48.721681868107794L-177.3137768409732,-50.375317442143185z" style="fill:rgb(20,68,165)"/><path d="M-98.50072185042313,48.5180277046477L-57.25144952041646,139.07032363294368L-94.01963330483285,47.87639443176499z" style="fill:rgb(77,66,227)"/><path d="M-38.936798057718,31.55481465186185L0.7957938122827266,124.21099833290671L1.7657289310522257,118.6209293316273z" style="fill:rgb(246,164,155)"/><path d="M-155.77601615378893,-82.36408508476161L-158.59179580848772,-47.13860133420533L-151.2411684403466,-47.811921571202866z" style="fill:rgb(82,237,172)"/><path d="M-64.65184181808853,41.123775031625385L-29.101595521714955,134.66212621731438L-18.998719327404505,131.81558749452802z" style="fill:rgb(115,75,243)"/><path d="M-50.540006780343866,-32.96396743956183L-29.17342189488859,13.543508776133585L-26.904364025123957,10.858473858380174z" style="fill:rgb(235,145,192)"/><path d="M-32.80502526270384,-48.441416034731105L-54.90381926061761,-96.06157684013439L-34.642948383807195,-47.143124257610054z" style="fill:rgb(213,123,221)"/><path d="M-37.54063890496704,26.66206200815178L3.830843606398963,112.85101833514318L-36.27892782413219,24.08867340342136z" style="fill:rgb(244,158,168)"/><path d="M-143.69464334763546,1.3255983605006718L-120.5928831599963,48.41154423380979L-142.34728591696668,1.5614720392802686z" style="fill:rgb(35,64,189)"/><path d="M-137.5565144388071,1.8062256739607754L-117.37937275139943,48.754100036934645L-114.14068099117941,49.09933782207796z" style="fill:rgb(44,63,200)"/><path d="M-46.937918194509095,-36.77406312335527L-24.15711424747583,8.130188493803805L-45.497338570502585,-38.07452884841596z" style="fill:rgb(229,138,203)"/><path d="M-54.18246527402318,37.66816152043372L-18.998719327404505,131.81558749452802L-8.79253072354106,128.33639469688327z" style="fill:rgb(129,79,245)"/><path d="M-94.01963330483285,47.87639443176499L-48.373049923784414,138.30991314774994L-89.51393770737667,47.2311285630575z" style="fill:rgb(77,66,227)"/><path d="M-8.79253072354106,128.33639469688327L0.7416949980052896,124.52315004571707L-39.01484842356436,31.828220018640373zM0.8048855801815774,124.49790059003675L-39.01484842356436,31.828220018640373L0.7416949980052896,124.52315004571707z" style="fill:rgb(142,85,246)"/><path d="M-27.324204635187478,-52.312928569425694L-47.32432539387756,-101.02928268917252L-54.90381926061761,-96.06157684013439z" style="fill:rgb(213,123,221)"/><path d="M-3.366190564270082,114.77194002675274L0.7957938122827266,124.21099833290671L-38.936798057718,31.55481465186185z" style="fill:rgb(246,169,142)"/><path d="M-51.7508292149451,-31.683140089475973L-31.46133593706453,16.25085581341901L-29.17342189488859,13.543508776133585z" style="fill:rgb(235,145,192)"/><path d="M-135.9468572045632,1.8884240690288554L-114.14068099117941,49.09933782207796L-110.45663209752124,49.119393910623565z" style="fill:rgb(54,63,210)"/><path d="M-89.51393770737667,47.2311285630575L-48.373049923784414,138.30991314774994L-84.72429940215955,46.26194810301809z" style="fill:rgb(89,68,234)"/><path d="M-39.08635521045443,-105.9646230674906L-43.54543981702493,-103.50602687244883L-47.32432539387756,-101.02928268917252z" style="fill:rgb(82,237,172)"/><path d="M-147.70259111560875,0.6238659890607443L-170.19339355369155,-47.61181114887894L-148.77497237742315,0.2413486600015694z" style="fill:rgb(27,66,177)"/><path d="M-142.34728591696668,1.5614720392802686L-117.37937275139943,48.754100036934645L-137.5565144388071,1.8062256739607754z" style="fill:rgb(44,63,200)"/><path d="M-34.642948383807195,-47.143124257610054L-61.7368281231454,-91.1105828260191L-39.55876956138167,-43.251912799003414z" style="fill:rgb(221,131,213)"/><path d="M-155.77601615378893,-82.36408508476161L-151.2411684403466,-47.811921571202866L-142.96859475470322,-49.09978586366036z" style="fill:rgb(82,237,172)"/><path d="M-50.540006780343866,-32.96396743956183L-26.904364025123957,10.858473858380174L-46.937918194509095,-36.77406312335527z" style="fill:rgb(235,145,192)"/><path d="M-38.235279310407336,29.096384866570993L1.7657289310522257,118.6209293316273L-37.54063890496704,26.66206200815178z" style="fill:rgb(246,164,155)"/><path d="M-39.55876956138167,-43.251912799003414L-61.7368281231454,-91.1105828260191L-41.2086388947754,-41.94586744369027z" style="fill:rgb(221,131,213)"/><path d="M-84.72429940215955,46.26194810301809L-38.94320443509685,136.83592928669412L-79.91294264318968,45.288259994687024z" style="fill:rgb(89,68,234)"/><path d="M-143.69464334763546,1.3255983605006718L-170.19339355369155,-47.61181114887894L-147.70259111560875,0.6238659890607443z" style="fill:rgb(35,64,189)"/><path d="M-148.77497237742315,0.2413486600015694L-170.19339355369155,-47.61181114887894L-174.32964163246587,-48.721681868107794z" style="fill:rgb(27,66,177)"/><path d="M-130.42485731257383,1.661542182972536L-110.45663209752124,49.119393910623565L-106.74633223218017,49.139593555077624z" style="fill:rgb(54,63,210)"/><path d="M-79.91294264318968,45.288259994687024L-38.94320443509685,136.83592928669412L-74.88553109003352,44.00178376522644z" style="fill:rgb(102,71,239)"/><path d="M-137.5565144388071,1.8062256739607754L-114.14068099117941,49.09933782207796L-135.9468572045632,1.8884240690288554z" style="fill:rgb(44,63,200)"/><path d="M-54.609795575213006,-27.977123222237637L-33.2372598285985,18.883379169158744L-31.46133593706453,16.25085581341901z" style="fill:rgb(240,151,180)"/><path d="M-155.77601615378893,-82.36408508476161L-142.96859475470322,-49.09978586366036L-133.8830793338373,-50.99461126267736z" style="fill:rgb(82,237,172)"/><path d="M-51.7508292149451,-31.683140089475973L-29.17342189488859,13.543508776133585L-50.540006780343866,-32.96396743956183z" style="fill:rgb(235,145,192)"/><path d="M-34.642948383807195,-47.143124257610054L-54.90381926061761,-96.06157684013439L-61.7368281231454,-91.1105828260191z" style="fill:rgb(221,131,213)"/><path d="M-38.936798057718,31.55481465186185L1.7657289310522257,118.6209293316273L-38.235279310407336,29.096384866570993z" style="fill:rgb(246,164,155)"/><path d="M-74.88553109003352,44.00178376522644L-29.101595521714955,134.66212621731438L-69.84039700962815,42.7107997727787z" style="fill:rgb(102,71,239)"/><path d="M-128.57077306794574,1.585400862061465L-106.74633223218017,49.139593555077624L-102.63666900341434,48.82979514907563z" style="fill:rgb(65,64,219)"/><path d="M-43.54543981702493,-103.50602687244883L-57.507181988366035,-95.8080513737355L-62.675427834040775,-90.96805067249561z" style="fill:rgb(82,237,172)"/><path d="M-69.84039700962815,42.7107997727787L-29.101595521714955,134.66212621731438L-64.65184181808853,41.123775031625385z" style="fill:rgb(115,75,243)"/><path d="M-135.9468572045632,1.8884240690288554L-110.45663209752124,49.119393910623565L-130.42485731257383,1.661542182972536z" style="fill:rgb(54,63,210)"/><path d="M-41.2086388947754,-41.94586744369027L-67.73737718048417,-86.2274668859936L-45.497338570502585,-38.07452884841596z" style="fill:rgb(229,138,203)"/><path d="M-55.57154795040113,-26.730452326028534L-35.02906406586022,21.539441943346105L-33.2372598285985,18.883379169158744z" style="fill:rgb(240,151,180)"/><path d="M-155.77601615378893,-82.36408508476161L-133.8830793338373,-50.99461126267736L-124.1128965321218,-53.477141645511296z" style="fill:rgb(82,237,172)"/><path d="M-142.34728591696668,1.5614720392802686L-164.93184005583342,-47.07651627574972L-143.69464334763546,1.3255983605006718z" style="fill:rgb(35,64,189)"/><path d="M-64.65184181808853,41.123775031625385L-18.998719327404505,131.81558749452802L-59.45073050408502,39.532914731785354z" style="fill:rgb(115,75,243)"/><path d="M-54.609795575213006,-27.977123222237637L-31.46133593706453,16.25085581341901L-51.7508292149451,-31.683140089475973z" style="fill:rgb(240,151,180)"/><path d="M-59.45073050408502,39.532914731785354L-18.998719327404505,131.81558749452802L-54.18246527402318,37.66816152043372z" style="fill:rgb(129,79,245)"/><path d="M-45.497338570502585,-38.07452884841596L-67.73737718048417,-86.2274668859936L-46.937918194509095,-36.77406312335527z" style="fill:rgb(229,138,203)"/><path d="M-54.18246527402318,37.66816152043372L-8.79253072354106,128.33639469688327L-48.907239819624394,35.80098191446101z" style="fill:rgb(129,79,245)"/><path d="M-122.38473403282391,0.8797103968767194L-102.63666900341434,48.82979514907563L-98.50072185042313,48.5180277046477z" style="fill:rgb(65,64,219)"/><path d="M-8.79253072354106,128.33639469688327L-43.64302309037543,33.68686382402807L-48.907239819624394,35.80098191446101zM-8.79253072354106,128.33639469688327L-39.01484842356436,31.828220018640373L-43.64302309037543,33.68686382402807zM0.8048855801815774,124.49790059003675L-38.94917171720677,31.801918452475743L-39.01484842356436,31.828220018640373z" style="fill:rgb(142,85,246)"/><path d="M-155.77601615378893,-82.36408508476161L-124.1128965321218,-53.477141645511296L-113.80291047391304,-56.51661478291221z" style="fill:rgb(82,237,172)"/><path d="M-137.5565144388071,1.8062256739607754L-164.93184005583342,-47.07651627574972L-142.34728591696668,1.5614720392802686z" style="fill:rgb(44,63,200)"/><path d="M-130.42485731257383,1.661542182972536L-106.74633223218017,49.139593555077624L-128.57077306794574,1.585400862061465z" style="fill:rgb(54,63,210)"/><path d="M-3.366190564270082,114.77194002675274L-38.936798057718,31.55481465186185L-38.94917171720677,31.801918452475743z" style="fill:rgb(246,169,142)"/><path d="M-143.69464334763546,1.3255983605006718L-164.93184005583342,-47.07651627574972L-170.19339355369155,-47.61181114887894z" style="fill:rgb(35,64,189)"/><path d="M-41.2086388947754,-41.94586744369027L-61.7368281231454,-91.1105828260191L-67.73737718048417,-86.2274668859936z" style="fill:rgb(229,138,203)"/><path d="M-120.30924611969623,0.6429900729281434L-98.50072185042313,48.5180277046477L-94.01963330483285,47.87639443176499z" style="fill:rgb(77,66,227)"/><path d="M-155.77601615378893,-82.36408508476161L-113.80291047391304,-56.51661478291221L-103.11181913069886,-60.070222817530414z" style="fill:rgb(82,237,172)"/><path d="M-57.63536763383243,-23.172683996366814L-36.27892782413219,24.08867340342136L-35.02906406586022,21.539441943346105z" style="fill:rgb(244,158,168)"/><path d="M-55.57154795040113,-26.730452326028534L-33.2372598285985,18.883379169158744L-54.609795575213006,-27.977123222237637z" style="fill:rgb(240,151,180)"/><path d="M-54.90381926061761,-96.06157684013439L-62.675427834040775,-90.96805067249561L-65.21144726002758,-88.5929816874972z" style="fill:rgb(82,237,172)"/><path d="M-128.57077306794574,1.585400862061465L-102.63666900341434,48.82979514907563L-122.38473403282391,0.8797103968767194z" style="fill:rgb(65,64,219)"/><path d="M-155.77601615378893,-82.36408508476161L-103.11181913069886,-60.070222817530414L-92.20857315544467,-64.0849820776651zM-155.77601615378893,-82.36408508476161L-92.20857315544467,-64.0849820776651L-81.92981902218243,-68.23105464633004z" style="fill:rgb(82,237,172)"/><path d="M-46.937918194509095,-36.77406312335527L-72.82258046775748,-81.46522841808195L-50.540006780343866,-32.96396743956183z" style="fill:rgb(235,145,192)"/><path d="M-113.5405367311377,-0.5402046119844804L-94.01963330483285,47.87639443176499L-89.51393770737667,47.2311285630575z" style="fill:rgb(77,66,227)"/><path d="M-135.9468572045632,1.8884240690288554L-158.59179580848772,-47.13860133420533L-137.5565144388071,1.8062256739607754z" style="fill:rgb(44,63,200)"/><path d="M-58.32995021157105,-21.975265013233134L-37.54063890496704,26.66206200815178L-36.27892782413219,24.08867340342136z" style="fill:rgb(244,158,168)"/><path d="M-122.38473403282391,0.8797103968767194L-98.50072185042313,48.5180277046477L-120.30924611969623,0.6429900729281434z" style="fill:rgb(65,64,219)"/><path d="M-57.63536763383243,-23.172683996366814L-35.02906406586022,21.539441943346105L-55.57154795040113,-26.730452326028534z" style="fill:rgb(244,158,168)"/><path d="M-111.27162199813799,-0.936736609877694L-89.51393770737667,47.2311285630575L-84.72429940215955,46.26194810301809z" style="fill:rgb(89,68,234)"/><path d="M-50.540006780343866,-32.96396743956183L-72.82258046775748,-81.46522841808195L-51.7508292149451,-31.683140089475973z" style="fill:rgb(235,145,192)"/><path d="M-130.42485731257383,1.661542182972536L-158.59179580848772,-47.13860133420533L-135.9468572045632,1.8884240690288554z" style="fill:rgb(54,63,210)"/><path d="M-61.7368281231454,-91.1105828260191L-65.21144726002758,-88.5929816874972L-67.73737718048417,-86.2274668859936z" style="fill:rgb(82,237,172)"/><path d="M-46.937918194509095,-36.77406312335527L-67.73737718048417,-86.2274668859936L-72.82258046775748,-81.46522841808195z" style="fill:rgb(235,145,192)"/><path d="M-57.507181988366035,-95.8080513737355L-73.12045295944506,-87.19952344807272L-78.06271534324853,-76.55777217367334z" style="fill:rgb(82,237,172)"/><path d="M-137.5565144388071,1.8062256739607754L-158.59179580848772,-47.13860133420533L-164.93184005583342,-47.07651627574972z" style="fill:rgb(44,63,200)"/><path d="M-120.30924611969623,0.6429900729281434L-94.01963330483285,47.87639443176499L-113.5405367311377,-0.5402046119844804z" style="fill:rgb(77,66,227)"/><path d="M-104.01556932642201,-2.5872504246461405L-84.72429940215955,46.26194810301809L-79.91294264318968,45.288259994687024z" style="fill:rgb(89,68,234)"/><path d="M-101.58575052617809,-3.1399656630140877L-79.91294264318968,45.288259994687024L-74.88553109003352,44.00178376522644z" style="fill:rgb(102,71,239)"/><path d="M-37.098284083978044,42.2839444975L2.303418789207231,134.56221942768406L4.8307958595764715,139.1763552010475z" style="fill:rgb(11,75,139)"/><path d="M-58.32995021157105,-21.975265013233134L-36.27892782413219,24.08867340342136L-57.63536763383243,-23.172683996366814z" style="fill:rgb(244,158,168)"/><path d="M-59.55179555809907,-18.611087812935768L-38.235279310407336,29.096384866570993L-37.54063890496704,26.66206200815178z" style="fill:rgb(246,164,155)"/><path d="M-113.5405367311377,-0.5402046119844804L-89.51393770737667,47.2311285630575L-111.27162199813799,-0.936736609877694z" style="fill:rgb(77,66,227)"/><path d="M-128.57077306794574,1.585400862061465L-151.2411684403466,-47.811921571202866L-130.42485731257383,1.661542182972536z" style="fill:rgb(54,63,210)"/><path d="M-93.9496622337373,-5.238421980265463L-74.88553109003352,44.00178376522644L-69.84039700962815,42.7107997727787z" style="fill:rgb(102,71,239)"/><path d="M-51.7508292149451,-31.683140089475973L-76.91329549824816,-76.87867962729875L-54.609795575213006,-27.977123222237637z" style="fill:rgb(240,151,180)"/><path d="M-111.27162199813799,-0.936736609877694L-84.72429940215955,46.26194810301809L-104.01556932642201,-2.5872504246461405z" style="fill:rgb(89,68,234)"/><path d="M-91.39525558352823,-5.94048341606986L-69.84039700962815,42.7107997727787L-64.65184181808853,41.123775031625385z" style="fill:rgb(115,75,243)"/><path d="M-122.38473403282391,0.8797103968767194L-151.2411684403466,-47.811921571202866L-128.57077306794574,1.585400862061465z" style="fill:rgb(65,64,219)"/><path d="M-59.963191864476755,-17.478372910736564L-38.936798057718,31.55481465186185L-38.235279310407336,29.096384866570993z" style="fill:rgb(246,164,155)"/><path d="M-83.49625192809495,-8.458701568591106L-64.65184181808853,41.123775031625385L-59.45073050408502,39.532914731785354z" style="fill:rgb(115,75,243)"/><path d="M-54.609795575213006,-27.977123222237637L-76.91329549824816,-76.87867962729875L-55.57154795040113,-26.730452326028534z" style="fill:rgb(240,151,180)"/><path d="M-130.42485731257383,1.661542182972536L-151.2411684403466,-47.811921571202866L-158.59179580848772,-47.13860133420533z" style="fill:rgb(54,63,210)"/><path d="M-59.55179555809907,-18.611087812935768L-37.54063890496704,26.66206200815178L-58.32995021157105,-21.975265013233134z" style="fill:rgb(246,164,155)"/><path d="M-104.01556932642201,-2.5872504246461405L-79.91294264318968,45.288259994687024L-101.58575052617809,-3.1399656630140877z" style="fill:rgb(89,68,234)"/><path d="M-80.85674543026272,-9.300255576630295L-59.45073050408502,39.532914731785354L-54.18246527402318,37.66816152043372z" style="fill:rgb(129,79,245)"/><path d="M-51.7508292149451,-31.683140089475973L-72.82258046775748,-81.46522841808195L-76.91329549824816,-76.87867962729875z" style="fill:rgb(240,151,180)"/><path d="M-72.81906250921948,-12.201219810925666L-54.18246527402318,37.66816152043372L-48.907239819624394,35.80098191446101z" style="fill:rgb(129,79,245)"/><path d="M-38.94917171720677,31.801918452475743L-38.936798057718,31.55481465186185L-59.963191864476755,-17.478372910736564z" style="fill:rgb(246,169,142)"/><path d="M-48.907239819624394,35.80098191446101L-43.64302309037543,33.68686382402807L-62.08842562407669,-16.408461690502612zM-43.64302309037543,33.68686382402807L-39.01484842356436,31.828220018640373L-60.05439684211729,-17.22714929378984zM-38.94917171720677,31.801918452475743L-60.05439684211729,-17.22714929378984L-39.01484842356436,31.828220018640373z" style="fill:rgb(142,85,246)"/><path d="M-101.58575052617809,-3.1399656630140877L-74.88553109003352,44.00178376522644L-93.9496622337373,-5.238421980265463z" style="fill:rgb(102,71,239)"/><path d="M-120.30924611969623,0.6429900729281434L-142.96859475470322,-49.09978586366036L-122.38473403282391,0.8797103968767194z" style="fill:rgb(65,64,219)"/><path d="M-93.9496622337373,-5.238421980265463L-69.84039700962815,42.7107997727787L-91.39525558352823,-5.94048341606986z" style="fill:rgb(102,71,239)"/><path d="M-38.1941647066568,40.38876163444794L2.303418789207231,134.56221942768406L-37.098284083978044,42.2839444975z" style="fill:rgb(11,75,139)"/><path d="M-113.5405367311377,-0.5402046119844804L-142.96859475470322,-49.09978586366036L-120.30924611969623,0.6429900729281434z" style="fill:rgb(77,66,227)"/><path d="M127.60315545254991,-51.052475840357715L29.72831707953211,38.850317332932725L128.6445950475777,-48.08687225563283z" style="fill:rgb(217,127,217)"/><path d="M-34.2785585411006,45.85061071114957L4.8307958595764715,139.1763552010475L8.549934818853764,143.31925554616492z" style="fill:rgb(15,71,152)"/><path d="M-59.963191864476755,-17.478372910736564L-38.235279310407336,29.096384866570993L-59.55179555809907,-18.611087812935768z" style="fill:rgb(246,164,155)"/><path d="M-91.39525558352823,-5.94048341606986L-64.65184181808853,41.123775031625385L-83.49625192809495,-8.458701568591106zM-83.49625192809495,-8.458701568591106L-59.45073050408502,39.532914731785354L-80.85674543026272,-9.300255576630295z" style="fill:rgb(115,75,243)"/><path d="M-55.57154795040113,-26.730452326028534L-79.93608841588556,-72.52398117262084L-57.63536763383243,-23.172683996366814z" style="fill:rgb(244,158,168)"/><path d="M-122.38473403282391,0.8797103968767194L-142.96859475470322,-49.09978586366036L-151.2411684403466,-47.811921571202866z" style="fill:rgb(65,64,219)"/><path d="M-80.85674543026272,-9.300255576630295L-54.18246527402318,37.66816152043372L-72.81906250921948,-12.201219810925666z" style="fill:rgb(129,79,245)"/><path d="M155.70938459614607,-30.401872946654514L189.9557948172246,70.82484981765316L189.10297825258985,65.52087578046482z" style="fill:rgb(246,164,155)"/><path d="M-72.81906250921948,-12.201219810925666L-48.907239819624394,35.80098191446101L-70.13632287456535,-13.169564451102895z" style="fill:rgb(129,79,245)"/><path d="M-38.94917171720677,31.801918452475743L-59.963191864476755,-17.478372910736564L-59.98757684287229,-17.25401042178336z" style="fill:rgb(246,169,142)"/><path d="M-48.907239819624394,35.80098191446101L-62.08842562407669,-16.408461690502612L-70.13632287456535,-13.169564451102895zM-43.64302309037543,33.68686382402807L-60.05439684211729,-17.22714929378984L-62.08842562407669,-16.408461690502612zM-38.94917171720677,31.801918452475743L-59.98757684287229,-17.25401042178336L-60.05439684211729,-17.22714929378984z" style="fill:rgb(142,85,246)"/><path d="M-111.27162199813799,-0.936736609877694L-133.8830793338373,-50.99461126267736L-113.5405367311377,-0.5402046119844804z" style="fill:rgb(77,66,227)"/><path d="M-72.82258046775748,-81.46522841808195L-75.41450630699373,-79.03780748301952L-76.91329549824816,-76.87867962729875z" style="fill:rgb(82,237,172)"/><path d="M-57.63536763383243,-23.172683996366814L-79.93608841588556,-72.52398117262084L-58.32995021157105,-21.975265013233134z" style="fill:rgb(244,158,168)"/><path d="M-104.01556932642201,-2.5872504246461405L-133.8830793338373,-50.99461126267736L-111.27162199813799,-0.936736609877694z" style="fill:rgb(89,68,234)"/><path d="M-55.57154795040113,-26.730452326028534L-76.91329549824816,-76.87867962729875L-79.93608841588556,-72.52398117262084z" style="fill:rgb(244,158,168)"/><path d="M-37.098284083978044,42.2839444975L4.8307958595764715,139.1763552010475L-35.99104826896993,44.198968332102325z" style="fill:rgb(11,75,139)"/><path d="M-113.5405367311377,-0.5402046119844804L-133.8830793338373,-50.99461126267736L-142.96859475470322,-49.09978586366036z" style="fill:rgb(77,66,227)"/><path d="M-101.58575052617809,-3.1399656630140877L-124.1128965321218,-53.477141645511296L-104.01556932642201,-2.5872504246461405z" style="fill:rgb(89,68,234)"/><path d="M-93.9496622337373,-5.238421980265463L-124.1128965321218,-53.477141645511296L-101.58575052617809,-3.1399656630140877z" style="fill:rgb(102,71,239)"/><path d="M-35.99104826896993,44.198968332102325L4.8307958595764715,139.1763552010475L-34.2785585411006,45.85061071114957z" style="fill:rgb(15,71,152)"/><path d="M114.31746363165384,18.596749049195964L128.66530610142414,-48.08556107966475L128.6445950475777,-48.08687225563283z" style="fill:rgb(82,237,172)"/><path d="M-30.222904790673713,48.89767776428407L8.549934818853764,143.31925554616492L13.44636050473012,146.92084118056198z" style="fill:rgb(20,68,165)"/><path d="M-75.41450630699373,-79.03780748301952L-78.06271534324853,-76.55777217367334L-79.93608841588556,-72.52398117262084z" style="fill:rgb(82,237,172)"/><path d="M-58.32995021157105,-21.975265013233134L-81.82424514446878,-68.4583456620034L-59.55179555809907,-18.611087812935768z" style="fill:rgb(246,164,155)"/><path d="M-91.39525558352823,-5.94048341606986L-113.80291047391304,-56.51661478291221L-93.9496622337373,-5.238421980265463z" style="fill:rgb(102,71,239)"/><path d="M111.34108823028548,-97.35751003813611L12.33142597051688,-4.347318063480298L127.60315545254991,-51.052475840357715z" style="fill:rgb(217,127,217)"/><path d="M155.70938459614607,-30.401872946654514L189.10297825258985,65.52087578046482L155.44155076082203,-32.64007894177085z" style="fill:rgb(246,164,155)"/><path d="M-83.49625192809495,-8.458701568591106L-113.80291047391304,-56.51661478291221L-91.39525558352823,-5.94048341606986z" style="fill:rgb(115,75,243)"/><path d="M155.60794853502074,-25.673276972046214L189.56692901199176,76.55329694565272L189.9557948172246,70.82484981765316z" style="fill:rgb(244,158,168)"/><path d="M114.31746363165384,18.596749049195964L135.52866792932747,-46.977967948497756L128.66530610142414,-48.08556107966475z" style="fill:rgb(82,237,172)"/><path d="M-104.01556932642201,-2.5872504246461405L-124.1128965321218,-53.477141645511296L-133.8830793338373,-50.99461126267736z" style="fill:rgb(89,68,234)"/><path d="M99.80932491227857,-111.12815290035255L8.808696350425581,-128.57234931991573L-1.357581588716423,-124.46805303308031zM99.80932491227857,-111.12815290035255L-1.357581588716423,-124.46805303308031L-11.323099856710648,-120.1144556400546zM99.80932491227857,-111.12815290035255L19.081412714863188,-132.38932497977294L8.808696350425581,-128.57234931991573z" style="fill:rgb(82,237,172)"/><path d="M-80.85674543026272,-9.300255576630295L-103.11181913069886,-60.070222817530414L-83.49625192809495,-8.458701568591106z" style="fill:rgb(115,75,243)"/><path d="M99.80932491227857,-111.12815290035255L-11.323099856710648,-120.1144556400546L-20.994557736176912,-115.55134388399682z" style="fill:rgb(82,237,172)"/><path d="M-76.55853361405413,-55.707566464477786L-70.13632287456535,-13.169564451102895L-62.08842562407669,-16.408461690502612zM-76.55853361405413,-55.707566464477786L-62.08842562407669,-16.408461690502612L-60.05439684211729,-17.22714929378984zM-77.04159359818374,-57.01956625168009L-60.05439684211729,-17.22714929378984L-59.98757684287229,-17.25401042178336z" style="fill:rgb(142,85,246)"/><path d="M-59.55179555809907,-18.611087812935768L-81.82424514446878,-68.4583456620034L-59.963191864476755,-17.478372910736564z" style="fill:rgb(246,164,155)"/><path d="M99.80932491227857,-111.12815290035255L29.36521384069514,-135.88197010241055L19.081412714863188,-132.38932497977294z" style="fill:rgb(82,237,172)"/><path d="M-72.81906250921948,-12.201219810925666L-103.11181913069886,-60.070222817530414L-80.85674543026272,-9.300255576630295z" style="fill:rgb(129,79,245)"/><path d="M-58.32995021157105,-21.975265013233134L-79.93608841588556,-72.52398117262084L-81.82424514446878,-68.4583456620034z" style="fill:rgb(246,164,155)"/><path d="M-59.98757684287229,-17.25401042178336L-59.963191864476755,-17.478372910736564L-81.82424514446878,-68.4583456620034z" style="fill:rgb(246,169,142)"/><path d="M-70.13632287456535,-13.169564451102895L-92.20857315544467,-64.0849820776651L-72.81906250921948,-12.201219810925666z" style="fill:rgb(129,79,245)"/><path d="M99.80932491227857,-111.12815290035255L-20.994557736176912,-115.55134388399682L-30.279537839969805,-110.82032892072249z" style="fill:rgb(82,237,172)"/><path d="M-34.2785585411006,45.85061071114957L8.549934818853764,143.31925554616492L-32.54837805857137,47.5194145004685z" style="fill:rgb(15,71,152)"/><path d="M99.80932491227857,-111.12815290035255L39.56349732935974,-139.01547141343042L29.36521384069514,-135.88197010241055z" style="fill:rgb(82,237,172)"/><path d="M-93.9496622337373,-5.238421980265463L-113.80291047391304,-56.51661478291221L-124.1128965321218,-53.477141645511296z" style="fill:rgb(102,71,239)"/><path d="M99.80932491227857,-111.12815290035255L-30.279537839969805,-110.82032892072249L-39.08635521045443,-105.9646230674906zM114.31746363165384,18.596749049195964L141.552033175684,-45.27290401122866L135.52866792932747,-46.977967948497756zM99.80932491227857,-111.12815290035255L49.57839341534108,-141.7562733399039L39.56349732935974,-139.01547141343042z" style="fill:rgb(82,237,172)"/><path d="M155.97997400102926,-28.14049615114008L189.9557948172246,70.82484981765316L155.70938459614607,-30.401872946654514z" style="fill:rgb(246,164,155)"/><path d="M-77.04159359818374,-57.01956625168009L-76.55853361405413,-55.707566464477786L-60.05439684211729,-17.22714929378984z" style="fill:rgb(142,85,246)"/><path d="M-24.948380969800603,51.36722520037812L13.44636050473012,146.92084118056198L19.48705543116763,149.91509162498363z" style="fill:rgb(27,66,177)"/><path d="M-32.54837805857137,47.5194145004685L8.549934818853764,143.31925554616492L-30.222904790673713,48.89767776428407z" style="fill:rgb(20,68,165)"/><path d="M-83.49625192809495,-8.458701568591106L-103.11181913069886,-60.070222817530414L-113.80291047391304,-56.51661478291221z" style="fill:rgb(115,75,243)"/><path d="M-76.55853361405413,-55.707566464477786L-92.20857315544467,-64.0849820776651L-70.13632287456535,-13.169564451102895z" style="fill:rgb(142,85,246)"/><path d="M-38.1941647066568,40.38876163444794L-37.098284083978044,42.2839444975L-58.14057377300096,-6.996756854514919z" style="fill:rgb(11,75,139)"/><path d="M99.80932491227857,-111.12815290035255L-39.08635521045443,-105.9646230674906L-47.32432539387756,-101.02928268917252z" style="fill:rgb(82,237,172)"/><path d="M-72.81906250921948,-12.201219810925666L-92.20857315544467,-64.0849820776651L-103.11181913069886,-60.070222817530414z" style="fill:rgb(129,79,245)"/><path d="M99.80932491227857,-111.12815290035255L59.310714391883664,-144.07251370009246L49.57839341534108,-141.7562733399039z" style="fill:rgb(82,237,172)"/><path d="M154.20591647197372,-20.512201204312493L187.905470471867,82.6385901177338L189.56692901199176,76.55329694565272z" style="fill:rgb(240,151,180)"/><path d="M-59.98757684287229,-17.25401042178336L-81.82424514446878,-68.4583456620034L-81.86170322101106,-68.25862437104932z" style="fill:rgb(246,169,142)"/><path d="M155.60794853502074,-25.673276972046214L189.9557948172246,70.82484981765316L155.97997400102926,-28.14049615114008z" style="fill:rgb(244,158,168)"/><path d="M-37.098284083978044,42.2839444975L-36.2092913964689,43.82161994170912L-57.831919375705446,-6.483847985743921z" style="fill:rgb(11,75,139)"/><path d="M99.80932491227857,-111.12815290035255L-47.32432539387756,-101.02928268917252L-54.90381926061761,-96.06157684013439zM114.31746363165384,18.596749049195964L146.6406794131081,-42.97276072873594L141.552033175684,-45.27290401122866zM99.80932491227857,-111.12815290035255L68.65976075656525,-145.9344821037981L59.310714391883664,-144.07251370009246z" style="fill:rgb(82,237,172)"/><path d="M-38.1941647066568,40.38876163444794L-58.14057377300096,-6.996756854514919L-59.65021454037243,-9.505599343104556z" style="fill:rgb(11,75,139)"/><path d="M-77.04159359818374,-57.01956625168009L-81.92981902218243,-68.23105464633004L-76.55853361405413,-55.707566464477786z" style="fill:rgb(142,85,246)"/><path d="M-30.222904790673713,48.89767776428407L13.44636050473012,146.92084118056198L-27.87374439252506,50.28986173632087z" style="fill:rgb(20,68,165)"/><path d="M-36.2092913964689,43.82161994170912L-35.99104826896993,44.198968332102325L-57.6320677567787,-6.151624998563977z" style="fill:rgb(11,75,139)"/><path d="M-76.55853361405413,-55.707566464477786L-81.92981902218243,-68.23105464633004L-92.20857315544467,-64.0849820776651z" style="fill:rgb(142,85,246)"/><path d="M-77.04159359818374,-57.01956625168009L-81.86170322101106,-68.25862437104932L-81.92981902218243,-68.23105464633004z" style="fill:rgb(142,84,246)"/><path d="M-81.82424514446878,-68.4583456620034L-81.92981902218243,-68.23105464633004L-81.86170322101106,-68.25862437104932z" style="fill:rgb(82,237,172)"/><path d="M-57.6320677567787,-6.151624998563977L-35.99104826896993,44.198968332102325L-34.2785585411006,45.85061071114957z" style="fill:rgb(15,71,152)"/><path d="M99.80932491227857,-111.12815290035255L-54.90381926061761,-96.06157684013439L-61.7368281231454,-91.1105828260191z" style="fill:rgb(82,237,172)"/><path d="M-18.492753846746734,53.206892696845614L19.48705543116763,149.91509162498363L26.61869094260007,152.24214260754007z" style="fill:rgb(35,64,189)"/><path d="M155.23217485623775,-23.181129152356288L189.56692901199176,76.55329694565272L155.60794853502074,-25.673276972046214z" style="fill:rgb(244,158,168)"/><path d="M-27.87374439252506,50.28986173632087L13.44636050473012,146.92084118056198L-24.948380969800603,51.36722520037812z" style="fill:rgb(27,66,177)"/><path d="M99.80932491227857,-111.12815290035255L77.5241691349693,-147.31457811299015L68.65976075656525,-145.9344821037981z" style="fill:rgb(82,237,172)"/><path d="M-37.098284083978044,42.2839444975L-57.831919375705446,-6.483847985743921L-58.14057377300096,-6.996756854514919z" style="fill:rgb(11,75,139)"/><path d="M151.4841168316682,-14.978957074761624L184.95953634296887,89.00359653920492L187.905470471867,82.6385901177338z" style="fill:rgb(235,145,192)"/><path d="M114.31746363165384,18.596749049195964L150.70515969183145,-40.08728888957613L146.6406794131081,-42.97276072873594z" style="fill:rgb(82,237,172)"/><path d="M154.20591647197372,-20.512201204312493L189.56692901199176,76.55329694565272L155.23217485623775,-23.181129152356288z" style="fill:rgb(240,151,180)"/><path d="M-36.2092913964689,43.82161994170912L-57.6320677567787,-6.151624998563977L-57.831919375705446,-6.483847985743921z" style="fill:rgb(11,75,139)"/><path d="M99.80932491227857,-111.12815290035255L-61.7368281231454,-91.1105828260191L-67.73737718048417,-86.2274668859936z" style="fill:rgb(82,237,172)"/><path d="M-55.17628048602954,-4.016855784416119L-34.2785585411006,45.85061071114957L-32.54837805857137,47.5194145004685z" style="fill:rgb(15,71,152)"/><path d="M99.80932491227857,-111.12815290035255L85.8014527109185,-148.18815986402043L77.5241691349693,-147.31457811299015z" style="fill:rgb(82,237,172)"/><path d="M-24.948380969800603,51.36722520037812L19.48705543116763,149.91509162498363L-21.994356570133842,52.45506906279669z" style="fill:rgb(27,66,177)"/><path d="M-10.915352026400706,54.371917056403774L26.61869094260007,152.24214260754007L34.766737927806865,153.84994632745926z" style="fill:rgb(44,63,200)"/><path d="M114.31746363165384,18.596749049195964L153.66304341904413,-36.634288304620796L150.70515969183145,-40.08728888957613z" style="fill:rgb(82,237,172)"/><path d="M-57.6320677567787,-6.151624998563977L-34.2785585411006,45.85061071114957L-55.17628048602954,-4.016855784416119z" style="fill:rgb(15,71,152)"/><path d="M153.16954258465208,-17.817335313297235L187.905470471867,82.6385901177338L154.20591647197372,-20.512201204312493z" style="fill:rgb(240,151,180)"/><path d="M99.80932491227857,-111.12815290035255L-67.73737718048417,-86.2274668859936L-72.82258046775748,-81.46522841808195z" style="fill:rgb(82,237,172)"/><path d="M-58.14057377300096,-6.996756854514919L-81.9765841305334,-61.42343163981894L-59.65021454037243,-9.505599343104556z" style="fill:rgb(11,75,139)"/><path d="M-21.994356570133842,52.45506906279669L19.48705543116763,149.91509162498363L-18.492753846746734,53.206892696845614z" style="fill:rgb(35,64,189)"/><path d="M-54.349034821084054,-3.2977984602527046L-32.54837805857137,47.5194145004685L-30.222904790673713,48.89767776428407z" style="fill:rgb(20,68,165)"/><path d="M127.60315545254991,-51.052475840357715L12.33142597051688,-4.347318063480298L29.72831707953211,38.850317332932725z" style="fill:rgb(217,127,217)"/><path d="M147.44473778188677,-9.143749390790628L180.7379184798225,95.56229298493795L184.95953634296887,89.00359653920492z" style="fill:rgb(229,138,203)"/><path d="M99.80932491227857,-111.12815290035255L93.38956674007459,-148.53341487894454L85.8014527109185,-148.18815986402043z" style="fill:rgb(82,237,172)"/><path d="M151.4841168316682,-14.978957074761624L187.905470471867,82.6385901177338L153.16954258465208,-17.817335313297235z" style="fill:rgb(235,145,192)"/><path d="M-55.17628048602954,-4.016855784416119L-32.54837805857137,47.5194145004685L-54.349034821084054,-3.2977984602527046z" style="fill:rgb(15,71,152)"/><path d="M99.80932491227857,-111.12815290035255L-72.82258046775748,-81.46522841808195L-76.91329549824816,-76.87867962729875zM114.31746363165384,18.596749049195964L155.44155076082203,-32.64007894177085L153.66304341904413,-36.634288304620796z" style="fill:rgb(82,237,172)"/><path d="M-50.94988339306621,-1.5779028305159553L-30.222904790673713,48.89767776428407L-27.87374439252506,50.28986173632087z" style="fill:rgb(20,68,165)"/><path d="M-18.492753846746734,53.206892696845614L26.61869094260007,152.24214260754007L-14.958516350344356,53.965742919163844z" style="fill:rgb(35,64,189)"/><path d="M-2.2978826568109967,54.82663792665085L34.766737927806865,153.84994632745926L43.83536672313927,154.69650542070565z" style="fill:rgb(54,63,210)"/><path d="M99.80932491227857,-111.12815290035255L100.18713293906859,-148.3325568438303L93.38956674007459,-148.53341487894454z" style="fill:rgb(82,237,172)"/><path d="M-57.6320677567787,-6.151624998563977L-80.16023255578054,-58.56656098630855L-58.14057377300096,-6.996756854514919z" style="fill:rgb(11,75,139)"/><path d="M149.78307770578178,-12.114479097801752L184.95953634296887,89.00359653920492L151.4841168316682,-14.978957074761624z" style="fill:rgb(235,145,192)"/><path d="M142.11285318914636,-3.085703558994766L175.27276779608664,102.22111741169677L180.7379184798225,95.56229298493795z" style="fill:rgb(221,131,213)"/><path d="M-14.958516350344356,53.965742919163844L26.61869094260007,152.24214260754007L-10.915352026400706,54.371917056403774z" style="fill:rgb(44,63,200)"/><path d="M-54.349034821084054,-3.2977984602527046L-30.222904790673713,48.89767776428407L-50.94988339306621,-1.5779028305159553z" style="fill:rgb(20,68,165)"/><path d="M-49.8051317259664,-0.9986447934710448L-27.87374439252506,50.28986173632087L-24.948380969800603,51.36722520037812z" style="fill:rgb(27,66,177)"/><path d="M-58.14057377300096,-6.996756854514919L-80.16023255578054,-58.56656098630855L-81.9765841305334,-61.42343163981894z" style="fill:rgb(11,75,139)"/><path d="M114.31746363165384,18.596749049195964L128.6445950475777,-48.08687225563283L12.24081469789837,54.21989980600521z" style="fill:rgb(82,237,172)"/><path d="M-55.17628048602954,-4.016855784416119L-80.16023255578054,-58.56656098630855L-57.6320677567787,-6.151624998563977z" style="fill:rgb(15,71,152)"/><path d="M99.80932491227857,-111.12815290035255L-76.91329549824816,-76.87867962729875L-79.93608841588556,-72.52398117262084z" style="fill:rgb(82,237,172)"/><path d="M147.44473778188677,-9.143749390790628L184.95953634296887,89.00359653920492L149.78307770578178,-12.114479097801752z" style="fill:rgb(229,138,203)"/><path d="M137.59369773404282,-84.68709659364957L119.01176377008838,-138.874408090844L137.68321223005324,-83.68466649439486z" style="fill:rgb(246,164,155)"/><path d="M114.31746363165384,18.596749049195964L155.97997400102926,-28.14049615114008L155.44155076082203,-32.64007894177085z" style="fill:rgb(82,237,172)"/><path d="M111.34108823028548,-97.35751003813611L8.427080113116768,-14.042072943943765L12.33142597051688,-4.347318063480298z" style="fill:rgb(217,127,217)"/><path d="M99.80932491227857,-111.12815290035255L106.09497201786749,-147.57221753778094L100.18713293906859,-148.3325568438303z" style="fill:rgb(82,237,172)"/><path d="M7.254954939536819,54.54626722815121L43.83536672313927,154.69650542070565L53.707824703216545,154.75120651712905z" style="fill:rgb(65,64,219)"/><path d="M-50.94988339306621,-1.5779028305159553L-27.87374439252506,50.28986173632087L-49.8051317259664,-0.9986447934710448z" style="fill:rgb(20,68,165)"/><path d="M-10.915352026400706,54.371917056403774L34.766737927806865,153.84994632745926L-6.836750482420646,54.78165163204738z" style="fill:rgb(44,63,200)"/><path d="M135.53820529511898,3.1082648820089798L168.61975859672413,108.88037804916387L175.27276779608664,102.22111741169677z" style="fill:rgb(213,123,221)"/><path d="M-45.48018104252886,0.2692799019615482L-24.948380969800603,51.36722520037812L-21.994356570133842,52.45506906279669z" style="fill:rgb(27,66,177)"/><path d="M145.08630133116017,-6.147649526491264L180.7379184798225,95.56229298493795L147.44473778188677,-9.143749390790628z" style="fill:rgb(229,138,203)"/><path d="M-6.836750482420646,54.78165163204738L34.766737927806865,153.84994632745926L-2.2978826568109967,54.82663792665085z" style="fill:rgb(54,63,210)"/><path d="M-54.349034821084054,-3.2977984602527046L-77.0530651183013,-56.22091859581628L-55.17628048602954,-4.016855784416119z" style="fill:rgb(15,71,152)"/><path d="M99.80932491227857,-111.12815290035255L-79.93608841588556,-72.52398117262084L-81.82424514446878,-68.4583456620034z" style="fill:rgb(82,237,172)"/><path d="M137.68321223005324,-83.68466649439486L119.1798242452249,-135.33315457977045L137.9545783750616,-80.64560591932104z" style="fill:rgb(246,164,155)"/><path d="M114.31746363165384,18.596749049195964L155.23217485623775,-23.181129152356288L155.97997400102926,-28.14049615114008z" style="fill:rgb(82,237,172)"/><path d="M-49.8051317259664,-0.9986447934710448L-24.948380969800603,51.36722520037812L-45.48018104252886,0.2692799019615482z" style="fill:rgb(27,66,177)"/><path d="M99.80932491227857,-111.12815290035255L111.01746249757196,-146.24452338805722L106.09497201786749,-147.57221753778094z" style="fill:rgb(82,237,172)"/><path d="M142.11285318914636,-3.085703558994766L180.7379184798225,95.56229298493795L145.08630133116017,-6.147649526491264z" style="fill:rgb(221,131,213)"/><path d="M-44.02405606078325,0.6962471673630029L-21.994356570133842,52.45506906279669L-18.492753846746734,53.206892696845614z" style="fill:rgb(35,64,189)"/><path d="M17.616473923944778,53.51844092634039L53.707824703216545,154.75120651712905L64.24737444742865,153.9970155608526z" style="fill:rgb(77,66,227)"/><path d="M-55.17628048602954,-4.016855784416119L-77.0530651183013,-56.22091859581628L-80.16023255578054,-58.56656098630855z" style="fill:rgb(15,71,152)"/><path d="M-50.94988339306621,-1.5779028305159553L-77.0530651183013,-56.22091859581628L-54.349034821084054,-3.2977984602527046z" style="fill:rgb(20,68,165)"/><path d="M127.79583984771304,9.344743436259423L160.85894654172398,115.43647884769153L168.61975859672413,108.88037804916387z" style="fill:rgb(203,116,229)"/><path d="M137.68321223005324,-83.68466649439486L119.01176377008838,-138.874408090844L119.1798242452249,-135.33315457977045z" style="fill:rgb(246,164,155)"/><path d="M137.9545783750616,-80.64560591932104L119.1798242452249,-135.33315457977045L137.71912911494033,-79.52421872195853z" style="fill:rgb(244,158,168)"/><path d="M-2.2978826568109967,54.82663792665085L43.83536672313927,154.69650542070565L2.2773647406012048,54.87198881241693z" style="fill:rgb(54,63,210)"/><path d="M-45.48018104252886,0.2692799019615482L-21.994356570133842,52.45506906279669L-44.02405606078325,0.6962471673630029z" style="fill:rgb(27,66,177)"/><path d="M99.80932491227857,-111.12815290035255L-81.82424514446878,-68.4583456620034L-82.52004245083393,-64.73915825310911z" style="fill:rgb(82,237,172)"/><path d="M139.11636306840404,0L175.27276779608664,102.22111741169677L142.11285318914636,-3.085703558994766z" style="fill:rgb(221,131,213)"/><path d="M2.2773647406012048,54.87198881241693L43.83536672313927,154.69650542070565L7.254954939536819,54.54626722815121z" style="fill:rgb(65,64,219)"/><path d="M-38.80713004888091,1.480493839256517L-18.492753846746734,53.206892696845614L-14.958516350344356,53.965742919163844z" style="fill:rgb(35,64,189)"/><path d="M114.31746363165384,18.596749049195964L153.16954258465208,-17.817335313297235L155.23217485623775,-23.181129152356288z" style="fill:rgb(82,237,172)"/><path d="M28.639809481852843,51.74432422272215L64.24737444742865,153.9970155608526L75.30018546164573,152.43140199938634z" style="fill:rgb(89,68,234)"/><path d="M99.80932491227857,-111.12815290035255L114.86448049030336,-144.3476246548764L111.01746249757196,-146.24452338805722z" style="fill:rgb(82,237,172)"/><path d="M118.98570082666116,15.526012642771516L152.0942270480448,121.78395645957936L160.85894654172398,115.43647884769153z" style="fill:rgb(192,109,235)"/><path d="M135.53820529511898,3.1082648820089798L175.27276779608664,102.22111741169677L139.11636306840404,0z" style="fill:rgb(213,123,221)"/><path d="M-49.8051317259664,-0.9986447934710448L-72.65494662239699,-54.43538796983486L-50.94988339306621,-1.5779028305159553z" style="fill:rgb(20,68,165)"/><path d="M-44.02405606078325,0.6962471673630029L-18.492753846746734,53.206892696845614L-38.80713004888091,1.480493839256517z" style="fill:rgb(35,64,189)"/><path d="M-37.051424477454,1.744364643336065L-14.958516350344356,53.965742919163844L-10.915352026400706,54.371917056403774z" style="fill:rgb(44,63,200)"/><path d="M137.71912911494033,-79.52421872195853L118.01319500556137,-131.2938395039992L137.00553713948514,-76.12549441025887z" style="fill:rgb(244,158,168)"/><path d="M7.254954939536819,54.54626722815121L53.707824703216545,154.75120651712905L12.267991736147701,54.21821990017326z" style="fill:rgb(65,64,219)"/><path d="M40.16006846893328,49.23978565513897L75.30018546164573,152.43140199938634L86.69773889173749,150.0675888411791z" style="fill:rgb(102,71,239)"/><path d="M109.23208045509305,21.552098158630958L142.452010293586,127.81866884715173L152.0942270480448,121.78395645957936z" style="fill:rgb(180,103,240)"/><path d="M-45.48018104252886,0.2692799019615482L-72.65494662239699,-54.43538796983486L-49.8051317259664,-0.9986447934710448z" style="fill:rgb(27,66,177)"/><path d="M-50.94988339306621,-1.5779028305159553L-72.65494662239699,-54.43538796983486L-77.0530651183013,-56.22091859581628z" style="fill:rgb(20,68,165)"/><path d="M99.80932491227857,-111.12815290035255L-82.52004245083393,-64.73915825310911L-81.9765841305334,-61.42343163981894zM114.31746363165384,18.596749049195964L149.78307770578178,-12.114479097801752L153.16954258465208,-17.817335313297235z" style="fill:rgb(82,237,172)"/><path d="M131.93562977812914,6.2378550990144035L168.61975859672413,108.88037804916387L135.53820529511898,3.1082648820089798z" style="fill:rgb(213,123,221)"/><path d="M12.267991736147701,54.21821990017326L53.707824703216545,154.75120651712905L17.616473923944778,53.51844092634039z" style="fill:rgb(77,66,227)"/><path d="M137.00553713948514,-76.12549441025887L118.01319500556137,-131.2938395039992L136.4381018960612,-74.89718643888334z" style="fill:rgb(240,151,180)"/><path d="M137.71912911494033,-79.52421872195853L119.1798242452249,-135.33315457977045L118.01319500556137,-131.2938395039992z" style="fill:rgb(244,158,168)"/><path d="M51.99763451208223,46.03542048623792L86.69773889173749,150.0675888411791L98.26045764403823,146.9346225417761z" style="fill:rgb(115,75,243)"/><path d="M99.80932491227857,-111.12815290035255L117.55341579450754,-141.8864303980783L114.86448049030336,-144.3476246548764z" style="fill:rgb(82,237,172)"/><path d="M127.79583984771304,9.344743436259423L168.61975859672413,108.88037804916387L131.93562977812914,6.2378550990144035z" style="fill:rgb(203,116,229)"/><path d="M-38.80713004888091,1.480493839256517L-14.958516350344356,53.965742919163844L-37.051424477454,1.744364643336065z" style="fill:rgb(35,64,189)"/><path d="M98.68095019931019,27.323355502074282L132.07841308201085,133.44016975307574L142.452010293586,127.81866884715173z" style="fill:rgb(168,96,244)"/><path d="M-30.99295717395924,2.0191981925844114L-10.915352026400706,54.371917056403774L-6.836750482420646,54.78165163204738z" style="fill:rgb(44,63,200)"/><path d="M63.963208357116415,42.17645254340931L98.26045764403823,146.9346225417761L109.80257775413484,143.0769182084542z" style="fill:rgb(129,79,245)"/><path d="M87.49755987289109,32.74348405560036L121.13651467653071,138.5544804011283L132.07841308201085,133.44016975307574z" style="fill:rgb(155,90,246)"/><path d="M17.616473923944778,53.51844092634039L64.24737444742865,153.9970155608526L22.99794725098884,52.81423018265421z" style="fill:rgb(77,66,227)"/><path d="M75.86158480540999,37.72194857665493L109.80257775413484,143.0769182084542L121.13651467653071,138.5544804011283z" style="fill:rgb(142,85,246)"/><path d="M114.31746363165384,18.596749049195964L145.08630133116017,-6.147649526491264L149.78307770578178,-12.114479097801752z" style="fill:rgb(82,237,172)"/><path d="M123.63179847879273,12.469828788128666L160.85894654172398,115.43647884769153L127.79583984771304,9.344743436259423z" style="fill:rgb(203,116,229)"/><path d="M-28.955454169374704,2.1115851372579835L-6.836750482420646,54.78165163204738L-2.2978826568109967,54.82663792665085z" style="fill:rgb(54,63,210)"/><path d="M22.99794725098884,52.81423018265421L64.24737444742865,153.9970155608526L28.639809481852843,51.74432422272215z" style="fill:rgb(89,68,234)"/><path d="M-44.02405606078325,0.6962471673630029L-66.98601362109167,-53.25262395769518L-45.48018104252886,0.2692799019615482z" style="fill:rgb(27,66,177)"/><path d="M-37.051424477454,1.744364643336065L-10.915352026400706,54.371917056403774L-30.99295717395924,2.0191981925844114z" style="fill:rgb(44,63,200)"/><path d="M99.80932491227857,-111.12815290035255L-81.9765841305334,-61.42343163981894L-80.16023255578054,-58.56656098630855z" style="fill:rgb(82,237,172)"/><path d="M12.33142597051688,-4.347318063480298L12.24081469789837,54.21989980600521L29.72831707953211,38.850317332932725z" style="fill:rgb(217,127,217)"/><path d="M136.4381018960612,-74.89718643888334L115.48588675851768,-126.7976255133951L134.71913838899732,-71.17545559528948z" style="fill:rgb(240,151,180)"/><path d="M118.98570082666116,15.526012642771516L160.85894654172398,115.43647884769153L123.63179847879273,12.469828788128666z" style="fill:rgb(192,109,235)"/><path d="M99.80932491227857,-111.12815290035255L119.01176377008838,-138.874408090844L117.55341579450754,-141.8864303980783z" style="fill:rgb(82,237,172)"/><path d="M28.639809481852843,51.74432422272215L75.30018546164573,152.43140199938634L34.31042350208097,50.66886453674245z" style="fill:rgb(89,68,234)"/><path d="M-38.80713004888091,1.480493839256517L-66.98601362109167,-53.25262395769518L-44.02405606078325,0.6962471673630029z" style="fill:rgb(35,64,189)"/><path d="M-45.48018104252886,0.2692799019615482L-66.98601362109167,-53.25262395769518L-72.65494662239699,-54.43538796983486z" style="fill:rgb(27,66,177)"/><path d="M114.31746363165384,18.596749049195964L152.0942270480448,121.78395645957936L118.98570082666116,15.526012642771516z" style="fill:rgb(192,109,235)"/><path d="M134.71913838899732,-71.17545559528948L115.48588675851768,-126.7976255133951L133.81783324319414,-69.8543749853801z" style="fill:rgb(235,145,192)"/><path d="M-22.123743036058087,1.859090817481752L-2.2978826568109967,54.82663792665085L2.2773647406012048,54.87198881241693z" style="fill:rgb(54,63,210)"/><path d="M-30.99295717395924,2.0191981925844114L-6.836750482420646,54.78165163204738L-28.955454169374704,2.1115851372579835z" style="fill:rgb(44,63,200)"/><path d="M34.31042350208097,50.66886453674245L75.30018546164573,152.43140199938634L40.16006846893328,49.23978565513897z" style="fill:rgb(102,71,239)"/><path d="M114.31746363165384,18.596749049195964L139.11636306840404,0L145.08630133116017,-6.147649526491264z" style="fill:rgb(82,237,172)"/><path d="M136.4381018960612,-74.89718643888334L118.01319500556137,-131.2938395039992L115.48588675851768,-126.7976255133951z" style="fill:rgb(240,151,180)"/><path d="M109.23208045509305,21.552098158630958L152.0942270480448,121.78395645957936L114.31746363165384,18.596749049195964z" style="fill:rgb(180,103,240)"/><path d="M40.16006846893328,49.23978565513897L86.69773889173749,150.0675888411791L46.03253179014495,47.80509100817645z" style="fill:rgb(102,71,239)"/><path d="M99.80932491227857,-111.12815290035255L-80.16023255578054,-58.56656098630855L-77.0530651183013,-56.22091859581628z" style="fill:rgb(82,237,172)"/><path d="M104.12829558426505,24.518060982541442L142.452010293586,127.81866884715173L109.23208045509305,21.552098158630958z" style="fill:rgb(180,103,240)"/><path d="M46.03253179014495,47.80509100817645L86.69773889173749,150.0675888411791L51.99763451208223,46.03542048623792z" style="fill:rgb(115,75,243)"/><path d="M-28.955454169374704,2.1115851372579835L-2.2978826568109967,54.82663792665085L-22.123743036058087,1.859090817481752z" style="fill:rgb(54,63,210)"/><path d="M98.68095019931019,27.323355502074282L142.452010293586,127.81866884715173L104.12829558426505,24.518060982541442z" style="fill:rgb(168,96,244)"/><path d="M2.2773647406012048,54.87198881241693L7.254954939536819,54.54626722815121L-12.308551871809234,0.9850873870355126z" style="fill:rgb(65,64,219)"/><path d="M99.80932491227857,-111.12815290035255L119.1798242452249,-135.33315457977045L119.01176377008838,-138.874408090844zM114.31746363165384,18.596749049195964L131.93562977812914,6.2378550990144035L139.11636306840404,0z" style="fill:rgb(82,237,172)"/><path d="M-37.051424477454,1.744364643336065L-60.08838570087595,-52.708303042520086L-38.80713004888091,1.480493839256517z" style="fill:rgb(35,64,189)"/><path d="M51.99763451208223,46.03542048623792L98.26045764403823,146.9346225417761L57.978897807210934,44.260949209589z" style="fill:rgb(115,75,243)"/><path d="M114.31746363165384,18.596749049195964L12.24081469789837,54.21989980600521L12.267991736147701,54.21821990017326z" style="fill:rgb(82,237,173)"/><path d="M93.22071273734794,30.135285541526702L132.07841308201085,133.44016975307574L98.68095019931019,27.323355502074282z" style="fill:rgb(168,96,244)"/><path d="M133.81783324319414,-69.8543749853801L111.59312443476063,-121.89564144741118L131.08844864323808,-65.85407274844802z" style="fill:rgb(235,145,192)"/><path d="M57.978897807210934,44.260949209589L98.26045764403823,146.9346225417761L63.963208357116415,42.17645254340931z" style="fill:rgb(129,79,245)"/><path d="M87.49755987289109,32.74348405560036L132.07841308201085,133.44016975307574L93.22071273734794,30.135285541526702z" style="fill:rgb(155,90,246)"/><path d="M63.963208357116415,42.17645254340931L109.80257775413484,143.0769182084542L69.95610882221757,40.08891892266698z" style="fill:rgb(129,79,245)"/><path d="M81.76797908019874,35.35455718793759L121.13651467653071,138.5544804011283L87.49755987289109,32.74348405560036z" style="fill:rgb(155,90,246)"/><path d="M69.95610882221757,40.08891892266698L109.80257775413484,143.0769182084542L75.86158480540999,37.72194857665493zM75.86158480540999,37.72194857665493L121.13651467653071,138.5544804011283L81.76797908019874,35.35455718793759z" style="fill:rgb(142,85,246)"/><path d="M7.254954939536819,54.54626722815121L12.24081469789837,54.21989980600521L-9.81128553340157,0.7230404682229111z" style="fill:rgb(65,64,219)"/><path d="M114.31746363165384,18.596749049195964L12.267991736147701,54.21821990017326L22.99794725098884,52.81423018265421z" style="fill:rgb(82,237,172)"/><path d="M-30.99295717395924,2.0191981925844114L-60.08838570087595,-52.708303042520086L-37.051424477454,1.744364643336065z" style="fill:rgb(44,63,200)"/><path d="M-22.123743036058087,1.859090817481752L2.2773647406012048,54.87198881241693L-19.827886335729392,1.7742811289275686z" style="fill:rgb(54,63,210)"/><path d="M12.33142597051688,-4.347318063480298L-8.43315348691299,4.066056716924301L12.24081469789837,54.21989980600521z" style="fill:rgb(217,127,217)"/><path d="M-38.80713004888091,1.480493839256517L-60.08838570087595,-52.708303042520086L-66.98601362109167,-53.25262395769518z" style="fill:rgb(35,64,189)"/><path d="M114.31746363165384,18.596749049195964L123.63179847879273,12.469828788128666L131.93562977812914,6.2378550990144035z" style="fill:rgb(82,237,172)"/><path d="M131.08844864323808,-65.85407274844802L111.59312443476063,-121.89564144741118L129.85673475623042,-64.45717237256969z" style="fill:rgb(229,138,203)"/><path d="M8.427080113116768,-14.042072943943765L-8.43315348691299,4.066056716924301L12.33142597051688,-4.347318063480298z" style="fill:rgb(217,127,217)"/><path d="M99.80932491227857,-111.12815290035255L-77.0530651183013,-56.22091859581628L-72.65494662239699,-54.43538796983486z" style="fill:rgb(82,237,172)"/><path d="M133.81783324319414,-69.8543749853801L115.48588675851768,-126.7976255133951L111.59312443476063,-121.89564144741118z" style="fill:rgb(235,145,192)"/><path d="M2.2773647406012048,54.87198881241693L-12.308551871809234,0.9850873870355126L-19.827886335729392,1.7742811289275686z" style="fill:rgb(65,64,219)"/><path d="M114.31746363165384,18.596749049195964L22.99794725098884,52.81423018265421L34.31042350208097,50.66886453674245zM99.80932491227857,-111.12815290035255L118.01319500556137,-131.2938395039992L119.1798242452249,-135.33315457977045z" style="fill:rgb(82,237,172)"/><path d="M-28.955454169374704,2.1115851372579835L-52.027787257172434,-52.829198016083595L-30.99295717395924,2.0191981925844114z" style="fill:rgb(44,63,200)"/><path d="M7.254954939536819,54.54626722815121L-9.81128553340157,0.7230404682229111L-12.308551871809234,0.9850873870355126z" style="fill:rgb(65,64,219)"/><path d="M114.31746363165384,18.596749049195964L34.31042350208097,50.66886453674245L46.03253179014495,47.80509100817645z" style="fill:rgb(82,237,172)"/><path d="M129.85673475623042,-64.45717237256969L106.35299371592583,-116.64889945248754L126.12927767990712,-60.229689272953856z" style="fill:rgb(229,138,203)"/><path d="M99.80932491227857,-111.12815290035255L-72.65494662239699,-54.43538796983486L-66.98601362109167,-53.25262395769518z" style="fill:rgb(82,237,172)"/><path d="M8.427080113116768,-14.042072943943765L-9.81128553340157,0.7230404682229111L-8.43315348691299,4.066056716924301z" style="fill:rgb(217,127,217)"/><path d="M-22.123743036058087,1.859090817481752L-52.027787257172434,-52.829198016083595L-28.955454169374704,2.1115851372579835z" style="fill:rgb(54,63,210)"/><path d="M114.31746363165384,18.596749049195964L46.03253179014495,47.80509100817645L57.978897807210934,44.260949209589zM114.31746363165384,18.596749049195964L93.22071273734794,30.135285541526702L104.12829558426505,24.518060982541442z" style="fill:rgb(82,237,172)"/><path d="M126.12927767990712,-60.229689272953856L106.35299371592583,-116.64889945248754L124.57671360422249,-58.775802685534686z" style="fill:rgb(221,131,213)"/><path d="M-30.99295717395924,2.0191981925844114L-52.027787257172434,-52.829198016083595L-60.08838570087595,-52.708303042520086z" style="fill:rgb(44,63,200)"/><path d="M114.31746363165384,18.596749049195964L57.978897807210934,44.260949209589L69.95610882221757,40.08891892266698zM99.80932491227857,-111.12815290035255L115.48588675851768,-126.7976255133951L118.01319500556137,-131.2938395039992zM114.31746363165384,18.596749049195964L81.76797908019874,35.35455718793759L93.22071273734794,30.135285541526702zM114.31746363165384,18.596749049195964L69.95610882221757,40.08891892266698L81.76797908019874,35.35455718793759z" style="fill:rgb(82,237,172)"/><path d="M129.85673475623042,-64.45717237256969L111.59312443476063,-121.89564144741118L106.35299371592583,-116.64889945248754z" style="fill:rgb(229,138,203)"/><path d="M-19.827886335729392,1.7742811289275686L-42.894140307309755,-53.63191903085558L-22.123743036058087,1.859090817481752z" style="fill:rgb(54,63,210)"/><path d="M124.57671360422249,-58.775802685534686L99.80932491227857,-111.12815290035255L119.88185318112455,-54.37955813955293z" style="fill:rgb(221,131,213)"/><path d="M99.80932491227857,-111.12815290035255L-66.98601362109167,-53.25262395769518L-60.08838570087595,-52.708303042520086z" style="fill:rgb(82,237,172)"/><path d="M-12.308551871809234,0.9850873870355126L-42.894140307309755,-53.63191903085558L-19.827886335729392,1.7742811289275686z" style="fill:rgb(65,64,219)"/><path d="M99.80932491227857,-111.12815290035255L111.59312443476063,-121.89564144741118L115.48588675851768,-126.7976255133951z" style="fill:rgb(82,237,172)"/><path d="M119.88185318112455,-54.37955813955293L99.80932491227857,-111.12815290035255L118.0242145648059,-52.88971889239912z" style="fill:rgb(213,123,221)"/><path d="M-22.123743036058087,1.859090817481752L-42.894140307309755,-53.63191903085558L-52.027787257172434,-52.829198016083595z" style="fill:rgb(54,63,210)"/><path d="M124.57671360422249,-58.775802685534686L106.35299371592583,-116.64889945248754L99.80932491227857,-111.12815290035255z" style="fill:rgb(221,131,213)"/><path d="M99.80932491227857,-111.12815290035255L-60.08838570087595,-52.708303042520086L-52.027787257172434,-52.829198016083595z" style="fill:rgb(82,237,172)"/><path d="M-9.783959886775548,0.7201513417558812L-32.80159345364944,-55.12097833207916L-12.308551871809234,0.9850873870355126z" style="fill:rgb(65,64,219)"/><path d="M118.0242145648059,-52.88971889239912L92.03199238312516,-105.4124783378738L112.41216041806811,-48.38888077810946z" style="fill:rgb(213,123,221)"/><path d="M99.80932491227857,-111.12815290035255L106.35299371592583,-116.64889945248754L111.59312443476063,-121.89564144741118z" style="fill:rgb(82,237,172)"/><path d="M-1.6795441188374856,-0.6053359326045191L-32.80159345364944,-55.12097833207916L-9.783959886775548,0.7201513417558812z" style="fill:rgb(77,66,227)"/><path d="M112.41216041806811,-48.38888077810946L92.03199238312516,-105.4124783378738L110.27182838359826,-46.88563841848244z" style="fill:rgb(203,116,229)"/><path d="M-12.308551871809234,0.9850873870355126L-32.80159345364944,-55.12097833207916L-42.894140307309755,-53.63191903085558z" style="fill:rgb(65,64,219)"/><path d="M99.80932491227857,-111.12815290035255L-52.027787257172434,-52.829198016083595L-42.894140307309755,-53.63191903085558z" style="fill:rgb(82,237,172)"/><path d="M118.0242145648059,-52.88971889239912L99.80932491227857,-111.12815290035255L92.03199238312516,-105.4124783378738z" style="fill:rgb(213,123,221)"/><path d="M1.0389301604954069,-1.0498542102695032L-21.887998378716645,-57.288294903305655L-1.6795441188374856,-0.6053359326045191z" style="fill:rgb(77,66,227)"/><path d="M110.27182838359826,-46.88563841848244L83.11766721814263,-99.58820512448351L103.81216821414425,-42.34905306139122z" style="fill:rgb(203,116,229)"/><path d="M9.610730085106848,-2.900892880714349L-21.887998378716645,-57.288294903305655L1.0389301604954069,-1.0498542102695032z" style="fill:rgb(89,68,234)"/><path d="M103.81216821414425,-42.34905306139122L83.11766721814263,-99.58820512448351L101.41773597526193,-40.85621072884728z" style="fill:rgb(192,109,235)"/><path d="M99.80932491227857,-111.12815290035255L-42.894140307309755,-53.63191903085558L-32.80159345364944,-55.12097833207916z" style="fill:rgb(82,237,172)"/><path d="M-1.6795441188374856,-0.6053359326045191L-21.887998378716645,-57.288294903305655L-32.80159345364944,-55.12097833207916z" style="fill:rgb(77,66,227)"/><path d="M12.482766576046906,-3.5211046398189176L-10.311980469709729,-60.112192195345706L9.610730085106848,-2.900892880714349z" style="fill:rgb(89,68,234)"/><path d="M101.41773597526193,-40.85621072884728L73.18857080267802,-93.74689401963457L94.1992500929903,-36.35601967407027z" style="fill:rgb(192,109,235)"/><path d="M110.27182838359826,-46.88563841848244L92.03199238312516,-105.4124783378738L83.11766721814263,-99.58820512448351z" style="fill:rgb(203,116,229)"/><path d="M21.391150753377175,-5.8761888022633L-10.311980469709729,-60.112192195345706L12.482766576046906,-3.5211046398189176z" style="fill:rgb(102,71,239)"/><path d="M94.1992500929903,-36.35601967407027L73.18857080267802,-93.74689401963457L91.58530331698377,-34.89795085787169z" style="fill:rgb(180,103,240)"/><path d="M99.80932491227857,-111.12815290035255L-32.80159345364944,-55.12097833207916L-21.887998378716645,-57.288294903305655z" style="fill:rgb(82,237,172)"/><path d="M24.372600228716188,-6.664448886025464L1.7488146320837457,-63.557517458791985L21.391150753377175,-5.8761888022633z" style="fill:rgb(102,71,239)"/><path d="M91.58530331698377,-34.89795085787169L62.39132644473763,-87.98343498150932L83.71443202333867,-30.507435491388406z" style="fill:rgb(180,103,240)"/><path d="M99.80932491227857,-111.12815290035255L83.11766721814263,-99.58820512448351L92.03199238312516,-105.4124783378738z" style="fill:rgb(82,237,172)"/><path d="M33.47659291325702,-9.491701786644944L1.7488146320837457,-63.557517458791985L24.372600228716188,-6.664448886025464z" style="fill:rgb(115,75,243)"/><path d="M9.610730085106848,-2.900892880714349L-10.311980469709729,-60.112192195345706L-21.887998378716645,-57.288294903305655z" style="fill:rgb(89,68,234)"/><path d="M83.71443202333867,-30.507435491388406L62.39132644473763,-87.98343498150932L80.92065789243259,-29.108194980424173z" style="fill:rgb(168,96,244)"/><path d="M101.41773597526193,-40.85621072884728L83.11766721814263,-99.58820512448351L73.18857080267802,-93.74689401963457z" style="fill:rgb(192,109,235)"/><path d="M36.51966567340529,-10.436816560371843L14.102808330475332,-67.57502229117922L33.47659291325702,-9.491701786644944z" style="fill:rgb(115,75,243)"/><path d="M80.92065789243259,-29.108194980424173L50.89363072385682,-82.3933414804952L72.51920204356531,-24.90045264903513z" style="fill:rgb(168,96,244)"/><path d="M99.80932491227857,-111.12815290035255L-21.887998378716645,-57.288294903305655L-10.311980469709729,-60.112192195345706z" style="fill:rgb(82,237,172)"/><path d="M45.67146242937945,-13.693961331780278L14.102808330475332,-67.57502229117922L36.51966567340529,-10.436816560371843z" style="fill:rgb(129,79,245)"/><path d="M72.51920204356531,-24.90045264903513L50.89363072385682,-82.3933414804952L69.59017528665161,-23.583720501663535z" style="fill:rgb(155,90,246)"/><path d="M99.80932491227857,-111.12815290035255L73.18857080267802,-93.74689401963457L83.11766721814263,-99.58820512448351z" style="fill:rgb(82,237,172)"/><path d="M48.72672806394453,-14.781377582041143L26.54853856637936,-72.10354315512463L45.67146242937945,-13.693961331780278z" style="fill:rgb(129,79,245)"/><path d="M69.59017528665161,-23.583720501663535L38.88027925090563,-77.07035844268L60.79281184514897,-19.629076728805376z" style="fill:rgb(155,90,246)"/><path d="M57.775950197830134,-18.416954923798666L26.54853856637936,-72.10354315512463L48.72672806394453,-14.781377582041143zM60.79281184514897,-19.629076728805376L38.88027925090563,-77.07035844268L57.775950197830134,-18.416954923798666z" style="fill:rgb(142,85,246)"/><path d="M21.391150753377175,-5.8761888022633L1.7488146320837457,-63.557517458791985L-10.311980469709729,-60.112192195345706z" style="fill:rgb(102,71,239)"/><path d="M91.58530331698377,-34.89795085787169L73.18857080267802,-93.74689401963457L62.39132644473763,-87.98343498150932z" style="fill:rgb(180,103,240)"/><path d="M99.80932491227857,-111.12815290035255L-10.311980469709729,-60.112192195345706L1.7488146320837457,-63.557517458791985zM99.80932491227857,-111.12815290035255L62.39132644473763,-87.98343498150932L73.18857080267802,-93.74689401963457zM99.80932491227857,-111.12815290035255L1.7488146320837457,-63.557517458791985L14.102808330475332,-67.57502229117922z" style="fill:rgb(82,237,172)"/><path d="M33.47659291325702,-9.491701786644944L14.102808330475332,-67.57502229117922L1.7488146320837457,-63.557517458791985z" style="fill:rgb(115,75,243)"/><path d="M99.80932491227857,-111.12815290035255L50.89363072385682,-82.3933414804952L62.39132644473763,-87.98343498150932z" style="fill:rgb(82,237,172)"/><path d="M80.92065789243259,-29.108194980424173L62.39132644473763,-87.98343498150932L50.89363072385682,-82.3933414804952z" style="fill:rgb(168,96,244)"/><path d="M99.80932491227857,-111.12815290035255L14.102808330475332,-67.57502229117922L26.54853856637936,-72.10354315512463zM99.80932491227857,-111.12815290035255L38.88027925090563,-77.07035844268L50.89363072385682,-82.3933414804952zM99.80932491227857,-111.12815290035255L26.54853856637936,-72.10354315512463L38.88027925090563,-77.07035844268z" style="fill:rgb(82,237,172)"/><path d="M45.67146242937945,-13.693961331780278L26.54853856637936,-72.10354315512463L14.102808330475332,-67.57502229117922z" style="fill:rgb(129,79,245)"/><path d="M69.59017528665161,-23.583720501663535L50.89363072385682,-82.3933414804952L38.88027925090563,-77.07035844268z" style="fill:rgb(155,90,246)"/><path d="M57.775950197830134,-18.416954923798666L38.88027925090563,-77.07035844268L26.54853856637936,-72.10354315512463z" style="fill:rgb(142,85,246)"/></svg>